<?xml version="1.0" encoding="UTF-8"?>
<svg version="1.1" xmlns="http://www.w3.org/2000/svg" width="1080" height="1080">
<path d="M0 0 C1.24394531 0.12632812 2.48789062 0.25265625 3.76953125 0.3828125 C4.96707031 0.51171875 6.16460937 0.640625 7.3984375 0.7734375 C8.47528809 0.88864746 9.55213867 1.00385742 10.66162109 1.12255859 C13.57173571 1.61596903 15.92157713 2.47024567 18.625 3.625 C21.70247865 4.20052847 24.78242418 4.62952806 27.8828125 5.0625 C30.625 5.625 30.625 5.625 33.625 7.625 C35.02996743 8.0605399 36.44913891 8.45118486 37.875 8.8125 C51.57537247 12.77260766 65.21260641 20.17982874 76.625 28.625 C77.71748047 29.25148438 77.71748047 29.25148438 78.83203125 29.890625 C82.58956255 32.22397311 85.98525045 34.92900395 89.4375 37.6875 C90.13037109 38.22955078 90.82324219 38.77160156 91.53710938 39.33007812 C92.19130859 39.85150391 92.84550781 40.37292969 93.51953125 40.91015625 C94.11612549 41.38332275 94.71271973 41.85648926 95.32739258 42.34399414 C95.75560303 42.76672607 96.18381348 43.18945801 96.625 43.625 C96.625 44.285 96.625 44.945 96.625 45.625 C97.17929687 45.85574219 97.73359375 46.08648437 98.3046875 46.32421875 C105.91192416 50.58888173 112.03093655 58.85518369 117.3125 65.6875 C117.74643066 66.24735596 118.18036133 66.80721191 118.62744141 67.3840332 C121.625 71.36304458 121.625 71.36304458 121.625 73.625 C122.285 73.625 122.945 73.625 123.625 73.625 C123.99625 74.429375 124.3675 75.23375 124.75 76.0625 C126.04322611 78.67290084 127.54944756 80.95062162 129.25 83.3125 C134.36436995 90.85146014 137.82327446 99.37681184 141.625 107.625 C146.94704544 119.0981998 152.50207266 130.39355094 158.4609375 141.55078125 C160.23927452 144.88206451 161.9506305 148.23996031 163.625 151.625 C164.49705078 153.35169922 164.49705078 153.35169922 165.38671875 155.11328125 C168.86302902 162.00895755 172.25491418 168.92985322 175.5 175.9375 C178.70261367 182.83598526 182.18892957 189.55027538 185.77294922 196.25708008 C188.89420237 202.13752102 191.79782255 208.09826892 194.625 214.125 C197.79709124 220.88568215 201.10154428 227.54054212 204.625 234.125 C208.61144812 241.57467493 212.28451356 249.13629733 215.87280273 256.78466797 C218.66089118 262.69238363 221.6072346 268.48971282 224.6875 274.25 C229.30930427 282.89465307 233.50773015 291.70532301 237.66259766 300.58154297 C240.56388759 306.74181611 243.64157241 312.80638315 246.86328125 318.8046875 C251.89637472 328.19899784 256.5393935 337.66806065 260.86083984 347.41137695 C263.65595978 353.65667151 266.72991051 359.67942184 270 365.6875 C281.45323263 387.08008228 285.69921248 413.35283846 280.40625 437.09765625 C279.73086399 440.1470241 279.21580706 443.16402821 278.75 446.25 C277.60413005 452.70153672 275.13742019 458.59999235 272.625 464.625 C272.34398437 465.31722656 272.06296875 466.00945312 271.7734375 466.72265625 C271.09015894 468.3707842 270.35847837 469.99859144 269.625 471.625 C269.35300781 472.2334375 269.08101562 472.841875 268.80078125 473.46875 C265.17748851 481.17398014 260.09748172 488.12642796 254.625 494.625 C254.0784375 495.28628906 253.531875 495.94757813 252.96875 496.62890625 C252.3603125 497.34949219 251.751875 498.07007813 251.125 498.8125 C250.27421875 499.82376953 250.27421875 499.82376953 249.40625 500.85546875 C247.625 502.625 247.625 502.625 245.53125 503.61328125 C243.47581878 504.4650718 243.47581878 504.4650718 242.70703125 506.5 C241.18661439 509.48594503 239.04918942 510.72894454 236.3125 512.625 C233.50625629 514.58515932 230.7553353 516.51756966 228.11328125 518.6953125 C223.71168363 522.10879637 218.63428705 524.23794537 213.625 526.625 C212.50609375 527.16898438 211.3871875 527.71296875 210.234375 528.2734375 C204.3835992 531.06276085 198.97402702 533.33367247 192.625 534.625 C191.41328125 534.94597656 190.2015625 535.26695312 188.953125 535.59765625 C175.69076832 538.92659474 162.14140534 538.97105781 148.625 537.625 C147.51366699 537.52396973 147.51366699 537.52396973 146.37988281 537.42089844 C138.16900105 536.66421623 130.30401722 535.80609576 122.625 532.625 C121.84253906 532.33753906 121.06007813 532.05007813 120.25390625 531.75390625 C111.41404862 528.43034043 103.2841618 523.81128288 95.3515625 518.71875 C93.8073003 517.74048436 92.21827951 516.83371973 90.625 515.9375 C89.635 515.2878125 89.635 515.2878125 88.625 514.625 C88.625 513.965 88.625 513.305 88.625 512.625 C87.61373047 512.34462891 87.61373047 512.34462891 86.58203125 512.05859375 C82.37983257 510.0213323 79.55653228 507.00120441 76.3125 503.6875 C75.65040527 503.0174292 74.98831055 502.3473584 74.30615234 501.65698242 C60.92757473 487.88935905 60.92757473 487.88935905 59.625 480.625 C58.965 480.625 58.305 480.625 57.625 480.625 C56.96371094 479.30048828 56.96371094 479.30048828 56.2890625 477.94921875 C55.30897221 475.99133884 54.32589225 474.03494198 53.3359375 472.08203125 C50.1663264 465.80768413 47.12240765 459.48308059 44.125 453.125 C40.09844919 444.59539826 36.03060992 436.10090036 31.57421875 427.78515625 C26.66706631 418.62764659 22.05796183 409.38187326 17.66796875 399.96484375 C15.12308673 394.52393581 12.55748732 389.13637697 9.4375 384 C7.67994211 380.727306 6.98272896 378.29172187 6.625 374.625 C5.965 374.625 5.305 374.625 4.625 374.625 C4.38265625 374.068125 4.1403125 373.51125 3.890625 372.9375 C1.61331687 367.75224456 -0.80667415 362.671359 -3.375 357.625 C-4.04270976 356.29218872 -4.70937358 354.95885295 -5.375 353.625 C-6.0415978 352.29163224 -6.7082716 350.95830246 -7.375 349.625 C-10.70833333 342.95833333 -14.04166667 336.29166667 -17.375 329.625 C-17.70467773 328.96717529 -18.03435547 328.30935059 -18.37402344 327.6315918 C-19.04888603 326.27873921 -19.71870721 324.92336149 -20.38378906 323.56567383 C-25.63935585 312.88504694 -32.20446923 303.10734124 -39.375 293.625 C-39.78572754 293.0774707 -40.19645508 292.52994141 -40.61962891 291.96582031 C-44.93742592 286.21629023 -49.20141964 280.64688588 -54.375 275.625 C-55.23738281 274.73941406 -56.09976563 273.85382813 -56.98828125 272.94140625 C-61.72709503 268.10658177 -66.37645647 263.55187208 -72.01171875 259.74609375 C-72.46160156 259.37613281 -72.91148437 259.00617188 -73.375 258.625 C-73.375 257.965 -73.375 257.305 -73.375 256.625 C-75.025 255.965 -76.675 255.305 -78.375 254.625 C-78.375 253.965 -78.375 253.305 -78.375 252.625 C-79.035 252.41875 -79.695 252.2125 -80.375 252 C-83.00881936 250.79283279 -84.75298397 249.64117309 -87 247.875 C-91.82449808 244.16521959 -96.99255719 241.43995572 -102.375 238.625 C-103.92508014 237.79408891 -105.47450882 236.96196185 -107.0234375 236.12890625 C-108.70288832 235.23132783 -110.38257719 234.33419471 -112.0625 233.4375 C-112.85825439 233.00920898 -113.65400879 232.58091797 -114.47387695 232.13964844 C-119.35004411 229.55644988 -124.16601109 227.4494956 -129.375 225.625 C-130.81746094 225.11646484 -130.81746094 225.11646484 -132.2890625 224.59765625 C-142.85540848 221.05016545 -153.48147452 217.97848794 -164.375 215.625 C-165.59574219 215.34398437 -166.81648438 215.06296875 -168.07421875 214.7734375 C-179.55533398 212.42692153 -191.01791613 212.32401193 -202.6875 212.3125 C-203.50374847 212.30909607 -204.31999695 212.30569214 -205.16098022 212.30218506 C-215.42595969 212.27772655 -225.24317242 212.82856208 -235.375 214.625 C-233.05385701 206.50099952 -229.29663033 199.21956216 -225.45556641 191.73779297 C-223.73773831 188.37898494 -222.05765273 185.00152592 -220.375 181.625 C-219.7111331 180.29677722 -219.04707003 178.96865247 -218.3828125 177.640625 C-217.8882959 176.6515918 -217.8882959 176.6515918 -217.38378906 175.64257812 C-216.35742187 173.58984375 -215.33105469 171.53710938 -214.3046875 169.484375 C-213.79446045 168.46380005 -213.79446045 168.46380005 -213.27392578 167.42260742 C-212.59287122 166.0606607 -211.91155729 164.69884364 -211.22998047 163.3371582 C-209.77750621 160.43470289 -208.32846963 157.53083723 -206.890625 154.62109375 C-203.32255334 147.41479172 -199.59019958 140.30190622 -195.80126953 133.2097168 C-193.77932315 129.4023343 -191.90653351 125.66137804 -190.375 121.625 C-189.68518301 120.17852329 -188.97580017 118.74126047 -188.25 117.3125 C-187.81171875 116.44496094 -187.3734375 115.57742188 -186.921875 114.68359375 C-186.15617187 113.16958984 -186.15617187 113.16958984 -185.375 111.625 C-184.42221036 109.72407099 -183.47163167 107.82205072 -182.52172852 105.91967773 C-181.8360209 104.54744326 -181.14899136 103.17586863 -180.46069336 101.80493164 C-178.7992532 98.49333246 -177.15284651 95.17671218 -175.55078125 91.8359375 C-172.39579927 85.32745781 -169.05832859 79.3396423 -164.7578125 73.515625 C-163.32957809 71.67337209 -163.32957809 71.67337209 -162.375 69.625 C-161.715 69.625 -161.055 69.625 -160.375 69.625 C-160.1584375 68.92761719 -159.941875 68.23023438 -159.71875 67.51171875 C-158.030639 63.88522449 -155.61060161 61.29074356 -152.875 58.4375 C-152.33601074 57.86725098 -151.79702148 57.29700195 -151.24169922 56.70947266 C-150.1424638 55.55123965 -149.03945632 54.39657434 -147.93261719 53.24560547 C-146.56255644 51.82014101 -145.20595869 50.38176257 -143.8515625 48.94140625 C-125.8145836 30.21530689 -102.06423665 15.69865376 -77.14453125 8.265625 C-75.07093968 7.5944234 -75.07093968 7.5944234 -72.375 5.625 C-69.99365039 5.06002975 -67.59430641 4.56918493 -65.1875 4.125 C-61.26494332 3.39374323 -57.47558059 2.65245012 -53.625 1.6015625 C-48.34407794 0.25225768 -42.98283449 -0.08540388 -37.5625 -0.5 C-36.03786133 -0.62955078 -36.03786133 -0.62955078 -34.48242188 -0.76171875 C-22.79922162 -1.69994898 -11.64919424 -1.27932017 0 0 Z " fill="#FDFDFD" transform="translate(378.375,271.375)"/>
<path d="M0 0 C1.10085938 0.2578125 2.20171875 0.515625 3.3359375 0.78125 C4.33882812 1.0184375 5.34171875 1.255625 6.375 1.5 C7.39335938 1.7371875 8.41171875 1.974375 9.4609375 2.21875 C12 3 12 3 14 5 C15.86699749 5.67890818 17.7340734 6.35760154 19.6015625 7.03515625 C38.00068183 14.43675637 57.01900756 29.84516925 67 47 C67.66 47.33 68.32 47.66 69 48 C72.01562297 52.53685711 74.41210472 57.49060856 76.9375 62.3125 C77.36740234 63.12912109 77.79730469 63.94574219 78.24023438 64.78710938 C85.47665274 78.56814891 85.47665274 78.56814891 88 85 C88.87692498 86.82172341 89.77432832 88.63367321 90.6875 90.4375 C91.47833984 92.00564453 91.47833984 92.00564453 92.28515625 93.60546875 C92.85105469 94.72566406 93.41695312 95.84585938 94 97 C95.21070419 99.41548324 96.41784555 101.83274122 97.625 104.25 C98.17414063 105.34828125 98.72328125 106.4465625 99.2890625 107.578125 C101.8125 112.625 104.3359375 117.671875 106.859375 122.71875 C107.31969116 123.63926147 107.31969116 123.63926147 107.78930664 124.57836914 C108.45541733 125.91075981 109.1212511 127.24328894 109.78686523 128.57592773 C111.53542821 132.07585011 113.28790856 135.57366713 115.05078125 139.06640625 C118.60201743 146.11387398 122.04953409 153.19321411 125.35791016 160.35791016 C128.42475299 166.97127705 131.6995197 173.47652802 134.98388672 179.98388672 C136.32989673 182.65456204 137.66711535 185.32958406 139.00341797 188.00512695 C139.66442287 189.32827029 140.32619895 190.65102866 140.98876953 191.97338867 C142.73036182 195.45014197 144.46065581 198.93198088 146.17578125 202.421875 C146.71235352 203.50855469 146.71235352 203.50855469 147.25976562 204.6171875 C147.94278403 206.00096505 148.62266438 207.38629763 149.29882812 208.7734375 C150.56537302 211.33285879 151.80356739 213.74339436 153.54296875 216.015625 C155.17985461 218.24494944 156.16453028 220.57127166 157.20947266 223.12158203 C158.54815223 226.30249637 160.12887112 229.35997956 161.6875 232.4375 C162.03490234 233.12851807 162.38230469 233.81953613 162.74023438 234.53149414 C164.16423606 237.36378218 165.59279383 240.19375903 167.02197266 243.0234375 C170.76896437 250.44772651 174.43767014 257.89315332 177.9375 265.4375 C180.97182185 271.96457717 184.23387441 278.33720628 187.63549805 284.6796875 C191.27314872 291.46934008 194.71633321 298.34850859 198.13183594 305.25195312 C199.73186491 308.47360876 201.3630468 311.67970402 202.9921875 314.88671875 C204 317 204 317 204.81640625 319.1796875 C206.96411278 324.29732483 209.77697422 329.10624497 212.45507812 333.96289062 C214.8000717 338.31886254 216.59959353 341.97449016 217 347 C217.66 347 218.32 347 219 347 C219.21914063 347.51046875 219.43828125 348.0209375 219.6640625 348.546875 C222.98516949 356.16112029 226.66906178 363.59581522 230.5546875 370.9375 C239.55713449 390.01295524 239.15729073 413.61103659 237.1875 434.125 C237.11756836 434.89440918 237.04763672 435.66381836 236.97558594 436.45654297 C236.39860817 441.7263499 234.99383459 446.0888706 233 451 C232.5359375 452.670625 232.5359375 452.670625 232.0625 454.375 C230.121476 460.99731719 227.65248205 467.1384264 224 473 C223.38125 474.0209375 222.7625 475.041875 222.125 476.09375 C218.18011363 482.46762469 214.00978649 488.50360463 209.1875 494.25 C208.73181641 494.79849609 208.27613281 495.34699219 207.80664062 495.91210938 C205.39099539 498.71909625 203.31377371 500.42130331 200 502 C199.67 502.99 199.34 503.98 199 505 C196.31860593 508.06445037 193.51043702 509.98149872 190 512 C188.9171875 512.8353125 188.9171875 512.8353125 187.8125 513.6875 C186 515 186 515 184 515 C184 515.66 184 516.32 184 517 C183.12859375 517.43441406 182.2571875 517.86882813 181.359375 518.31640625 C179.28219092 519.35741362 177.20850666 520.40547815 175.140625 521.46484375 C168.8730228 524.65793298 162.63595694 527.65444821 156 530 C155.01128906 530.350625 154.02257812 530.70125 153.00390625 531.0625 C137.47683025 536.03701669 121.12335828 536.77307229 105 535 C104.32114746 534.9273291 103.64229492 534.8546582 102.94287109 534.77978516 C90.79318851 533.44687261 90.79318851 533.44687261 85 531 C83.59040081 530.67589508 82.17313361 530.3832724 80.75 530.125 C68.12549 527.41677178 51.99268563 519.23442449 43 510 C41.76200344 509.08765036 40.5110488 508.19271206 39.25 507.3125 C34.82093346 504.01888506 31.4958736 500.24297562 28 496 C27.12674074 494.98547821 26.25161493 493.97256118 25.375 492.9609375 C24.45787756 491.89101551 23.54120957 490.82070381 22.625 489.75 C21.77164063 488.75484375 20.91828125 487.7596875 20.0390625 486.734375 C18.23190709 484.31098652 17.3782912 482.9422649 17 480 C16.34 480 15.68 480 15 480 C14.5153125 479.030625 14.030625 478.06125 13.53125 477.0625 C13.2115625 476.42320557 12.891875 475.78391113 12.5625 475.12524414 C11.84349055 473.68706002 11.12474812 472.24874238 10.40625 470.81030273 C8.5998053 467.19466916 6.79020899 463.58075221 4.96875 459.97265625 C1.12494257 452.34587316 -2.60915126 444.67822737 -6.2109375 436.93383789 C-8.39357698 432.24700936 -10.67061772 427.6154943 -13 423 C-40.9375 367.125 -40.9375 367.125 -41.953125 365.08984375 C-42.64687348 363.7049354 -43.34474624 362.32208481 -44.046875 360.94140625 C-46.1396283 356.8060684 -48.17329156 352.64768985 -50.14453125 348.453125 C-50.53165283 347.62981689 -50.91877441 346.80650879 -51.31762695 345.95825195 C-52.08599844 344.32012773 -52.8516178 342.68070877 -53.61401367 341.03979492 C-55.83261716 336.30791817 -58.2215333 331.72711869 -60.79052734 327.17651367 C-62.65719354 323.81734347 -64.36193087 320.38294166 -66.0625 316.9375 C-66.38798828 316.28201172 -66.71347656 315.62652344 -67.04882812 314.95117188 C-67.705313 313.62910233 -68.36107727 312.30667472 -69.01611328 310.98388672 C-70.66873083 307.65158642 -72.33508966 304.32617044 -74 301 C-74.66673176 299.66669922 -75.33339845 298.33336589 -76 297 C-76.33 296.34 -76.66 295.68 -77 295 C-84 281 -84 281 -84.99707031 279.00390625 C-85.67142494 277.65651024 -86.34789385 276.31017052 -87.02636719 274.96484375 C-89.18378896 270.67890345 -91.24510934 266.36015055 -93.25 262 C-96.67983071 254.59593584 -100.30749252 247.3002005 -103.98388672 240.01611328 C-105.66443646 236.68166355 -107.33141033 233.34044549 -109 230 C-109.32991943 229.34080566 -109.65983887 228.68161133 -109.99975586 228.00244141 C-111.67278272 224.65965451 -113.34092829 221.31458082 -115 217.96484375 C-118.21616419 211.48303592 -121.48800972 205.04851012 -124.9375 198.6875 C-128.46884598 192.16856201 -131.64389651 185.50660984 -134.77172852 178.78613281 C-136.82243583 174.40281865 -138.97213494 170.14251386 -141.375 165.9375 C-144.07247662 161.123771 -145.67540195 156.3387763 -147 151 C-147.48339844 149.15341797 -147.48339844 149.15341797 -147.9765625 147.26953125 C-155.23054051 118.08658682 -151.93451296 90.03553371 -139 63 C-138.47212891 61.84757812 -138.47212891 61.84757812 -137.93359375 60.671875 C-135.88222601 56.31164565 -133.37198973 52.62705448 -130.3671875 48.859375 C-128.98742174 46.98289357 -127.97966946 45.10862189 -127 43 C-126.34 43 -125.68 43 -125 43 C-124.938125 42.443125 -124.87625 41.88625 -124.8125 41.3125 C-123.6519231 38.00931958 -121.59786554 36.28105267 -119 34 C-118.34 34 -117.68 34 -117 34 C-116.73832031 33.40574219 -116.47664062 32.81148438 -116.20703125 32.19921875 C-110.86023515 22.45732166 -96.48904879 15.24926103 -87 10 C-86.38125 9.484375 -85.7625 8.96875 -85.125 8.4375 C-82.35630668 6.5645604 -79.49661336 5.72504446 -76.31640625 4.74609375 C-73.96909822 4.02167158 -73.96909822 4.02167158 -71.625 3.03515625 C-49.49417334 -5.69202986 -22.78903398 -6.37112778 0 0 Z " fill="#FDFDFD" transform="translate(787,274)"/>
<path d="M0 0 C2.1413989 0.01075834 4.28196568 0.00003057 6.42333984 -0.01269531 C13.27173455 -0.01980942 19.45346612 0.21779507 26.01318359 2.26074219 C28.3655672 2.74858721 30.71969664 3.22810725 33.07568359 3.69824219 C38.06063633 4.76606876 42.43235589 5.97032833 47.01318359 8.26074219 C48.36476562 8.91042969 48.36476562 8.91042969 49.74365234 9.57324219 C55.67133936 12.45820013 61.36567684 15.56501136 66.95458984 19.06152344 C69.09189771 20.40047218 69.09189771 20.40047218 72.01318359 21.26074219 C73.14279771 22.35612557 74.26561711 23.45938826 75.35302734 24.59667969 C78.34315796 27.5938459 81.54779787 30.35995794 84.70849609 33.17480469 C88.75120402 36.83379796 88.75120402 36.83379796 90.01318359 38.26074219 C90.01318359 38.92074219 90.01318359 39.58074219 90.01318359 40.26074219 C91.00318359 40.59074219 91.99318359 40.92074219 93.01318359 41.26074219 C112.14588202 63.49030754 121.87586868 90.47488176 121.57568359 119.51074219 C121.57242065 120.3652597 121.56915771 121.21977722 121.5657959 122.10018921 C121.49352574 135.07799573 120.50647668 146.97907442 116.01318359 159.26074219 C115.70251953 160.19789063 115.39185547 161.13503906 115.07177734 162.10058594 C112.17806333 170.1069606 107.88287673 177.69042017 104.01318359 185.26074219 C103.35318359 185.26074219 102.69318359 185.26074219 102.01318359 185.26074219 C101.76568359 185.96199219 101.51818359 186.66324219 101.26318359 187.38574219 C98.83007234 192.98189806 95.40386847 197.08423706 91.01318359 201.26074219 C90.25005859 202.02386719 89.48693359 202.78699219 88.70068359 203.57324219 C87.81380859 204.46011719 86.92693359 205.34699219 86.01318359 206.26074219 C85.44986328 206.85886719 84.88654297 207.45699219 84.30615234 208.07324219 C73.87487561 218.95066314 61.65577961 225.4737966 47.95849609 231.38964844 C46.27322805 232.14429658 44.63681048 233.00627762 43.01318359 233.88574219 C39.73984306 235.38602327 36.67671006 236.09131 33.16162109 236.79199219 C30.857855 237.24259073 30.857855 237.24259073 28.13818359 238.32324219 C9.16370234 244.01558656 -18.47533586 242.02120452 -36.98681641 235.26074219 C-38.03611328 234.88820313 -39.08541016 234.51566406 -40.16650391 234.13183594 C-50.48908947 230.32940546 -59.11217639 225.29984929 -68.18994141 219.12792969 C-69.98516184 217.92944454 -71.81095754 216.77489479 -73.67041016 215.67871094 C-76.57654417 213.89974526 -78.71673256 211.79026418 -80.98681641 209.26074219 C-80.98681641 208.60074219 -80.98681641 207.94074219 -80.98681641 207.26074219 C-81.57720703 207.00550781 -82.16759766 206.75027344 -82.77587891 206.48730469 C-92.40151369 201.14728822 -99.40549568 187.32698512 -104.98681641 178.26074219 C-105.39158203 177.60847656 -105.79634766 176.95621094 -106.21337891 176.28417969 C-110.54703224 169.03936991 -112.71622634 161.04852761 -115.11962891 153.01855469 C-115.88312948 150.33618233 -115.88312948 150.33618233 -116.98681641 148.26074219 C-120.43268089 124.31575686 -120.18795685 101.16909498 -111.98681641 78.26074219 C-111.48988281 76.83955078 -111.48988281 76.83955078 -110.98291016 75.38964844 C-108.99974702 70.0707883 -106.40552948 65.36779248 -103.35400391 60.58496094 C-101.91116044 58.28022782 -101.91116044 58.28022782 -100.99462891 55.65527344 C-99.93130494 53.12884866 -98.95147923 52.11755956 -96.98681641 50.26074219 C-95.57489229 48.35589781 -94.18093901 46.43767778 -92.79931641 44.51074219 C-89.01613881 39.35804657 -84.95988519 35.25099105 -79.98681641 31.26074219 C-78.58613716 30.03710047 -77.19027959 28.80791737 -75.79931641 27.57324219 C-74.52930246 26.46813316 -73.25856931 25.36384959 -71.98681641 24.26074219 C-71.18244141 23.55949219 -70.37806641 22.85824219 -69.54931641 22.13574219 C-66.50468798 19.90796529 -63.30799261 18.16805198 -59.97509766 16.40917969 C-57.84921326 15.29556295 -57.84921326 15.29556295 -55.98681641 13.26074219 C-54.11346473 12.5247826 -52.23674053 11.7960064 -50.34228516 11.11621094 C-45.32291047 9.29325396 -40.37633239 7.25698654 -35.44775391 5.20214844 C-32.50494655 4.07640784 -29.61162762 3.42617737 -26.53125 2.79882812 C-24.98032825 2.47084582 -23.43348572 2.12142408 -21.89624023 1.734375 C-14.62354216 0.01556419 -7.42579028 -0.04439424 0 0 Z " fill="#FDFDFD" transform="translate(173.98681640625,568.7392578125)"/>
<path d="M0 0 C0.33 1.32 0.66 2.64 1 4 C1.71774597 3.99777939 2.43549194 3.99555878 3.17498779 3.99327087 C9.94316404 3.97322351 16.71133584 3.95800317 23.47953415 3.94818783 C26.95902525 3.94297202 30.43849179 3.93589801 33.91796875 3.92456055 C37.91927322 3.91160455 41.92055193 3.90676102 45.921875 3.90234375 C47.16990906 3.89718246 48.41794312 3.89202118 49.70379639 3.88670349 C51.44514862 3.88659019 51.44514862 3.88659019 53.22167969 3.88647461 C54.75390167 3.88314369 54.75390167 3.88314369 56.31707764 3.87974548 C58.74251558 3.98845898 60.71751114 4.18816374 63 5 C64.75 7.0625 64.75 7.0625 66 9 C62.04897495 9.1717837 58.74431689 8.98772576 54.9140625 8.0078125 C47.59829995 6.49850884 40.21606932 6.70175663 32.77929688 6.73925781 C30.26928207 6.74991811 27.75999223 6.73934851 25.25 6.7265625 C15.64174183 6.71945475 6.48039429 7.2964007 -3 9 C-2.01 6.03 -1.02 3.06 0 0 Z " fill="#A0A0A1" transform="translate(146,477)"/>
<path d="M0 0 C5.28 0 10.56 0 16 0 C16 0.99 16 1.98 16 3 C31.18 3.33 46.36 3.66 62 4 C62 4.33 62 4.66 62 5 C49.77309555 6.6239906 38.27423293 7.22235362 26 6 C24.88866699 5.89896973 24.88866699 5.89896973 23.75488281 5.79589844 C15.51473711 5.03651939 7.74657971 4.09863188 0 1 C0 0.67 0 0.34 0 0 Z " fill="#6A6A6B" transform="translate(501,803)"/>
<path d="M0 0 C0.66 0 1.32 0 2 0 C1.02577213 6.13190481 -0.13662358 11.99657507 -2.234375 17.84765625 C-2.72152353 19.21714012 -3.17375541 20.59992578 -3.578125 21.99609375 C-5.97170649 30.11278996 -10.13132662 37.51076293 -14 45 C-14.66 45 -15.32 45 -16 45 C-16.66 46.32 -17.32 47.64 -18 49 C-17.67 46.69 -17.34 44.38 -17 42 C-16.01 42 -15.02 42 -14 42 C-14.020625 40.88625 -14.04125 39.7725 -14.0625 38.625 C-14 35 -14 35 -13 33 C-12.01 33 -11.02 33 -10 33 C-9.67 30.69 -9.34 28.38 -9 26 C-8.01 26 -7.02 26 -6 26 C-6.020625 24.7625 -6.04125 23.525 -6.0625 22.25 C-6.06766681 19.3359175 -5.93015558 16.79046673 -5 14 C-4.01 14 -3.02 14 -2 14 C-1.90912109 12.60974609 -1.90912109 12.60974609 -1.81640625 11.19140625 C-1.73261719 9.99386719 -1.64882813 8.79632812 -1.5625 7.5625 C-1.48128906 6.36753906 -1.40007812 5.17257812 -1.31640625 3.94140625 C-1 1 -1 1 0 0 Z " fill="#969797" transform="translate(292,709)"/>
<path d="M0 0 C0.33 0 0.66 0 1 0 C1.02886751 4.14581887 1.04675327 8.29161216 1.0625 12.4375 C1.07087891 13.62150391 1.07925781 14.80550781 1.08789062 16.02539062 C1.09111328 17.15009766 1.09433594 18.27480469 1.09765625 19.43359375 C1.10289307 20.47572021 1.10812988 21.51784668 1.11352539 22.59155273 C1 25 1 25 0 26 C0.09554358 27.50404082 0.25500814 29.00401735 0.4375 30.5 C1.2438688 38.32591263 1.08289308 46.14357849 1 54 C0.67 54 0.34 54 0 54 C-3.36571523 35.20808999 -3.0406465 18.83152169 0 0 Z " fill="#6F7070" transform="translate(638,363)"/>
<path d="M0 0 C0.33 0 0.66 0 1 0 C1.0093457 0.90540527 1.01869141 1.81081055 1.02832031 2.74365234 C1.10858161 25.32629014 1.10858161 25.32629014 5.16015625 47.44140625 C6.11545834 51.48922116 6.14190061 54.85741755 6 59 C6.66 59 7.32 59 8 59 C7.67 60.32 7.34 61.64 7 63 C5.0034606 60.0051909 4.31442567 57.88551663 3.4375 54.4375 C2.48823644 50.617722 2.48823644 50.617722 1 47 C-1.24540793 31.39687335 -2.02163208 15.66764859 0 0 Z " fill="#727273" transform="translate(56,670)"/>
<path d="M0 0 C9.03895047 13.5584257 9.84835765 37.69015168 6.91821289 53.29663086 C6.33189698 56.21041215 5.68071559 59.10695874 5 62 C4.67 62 4.34 62 4 62 C3.87482746 55.49102814 3.87482746 55.49102814 4.4934082 53.06445312 C5.49749807 48.97260544 5.1902909 44.69192561 5.1875 40.5 C5.18814453 39.51128906 5.18878906 38.52257812 5.18945312 37.50390625 C5.14491908 31.3420142 4.76300315 25.47590323 3.4375 19.4375 C2.92652566 16.59064299 2.93287809 13.88624192 3 11 C2.01 10.67 1.02 10.34 0 10 C0 6.7 0 3.4 0 0 Z " fill="#494949" transform="translate(653,650)"/>
<path d="M0 0 C0 0.33 0 0.66 0 1 C-0.87100342 0.99476318 -1.74200684 0.98952637 -2.6394043 0.98413086 C-5.93644907 0.96687342 -9.2334444 0.95444677 -12.53051758 0.94506836 C-13.94523893 0.94010442 -15.35995533 0.93333108 -16.7746582 0.92456055 C-32.23741994 -0.4783841 -32.23741994 -0.4783841 -45.64453125 3.52441406 C-46.09183594 4.01135742 -46.53914062 4.49830078 -47 5 C-50.35546875 5.29296875 -50.35546875 5.29296875 -54.1875 5.1875 C-55.45980469 5.16042969 -56.73210938 5.13335937 -58.04296875 5.10546875 C-59.01878906 5.07066406 -59.99460937 5.03585937 -61 5 C-61 4.67 -61 4.34 -61 4 C-40.44060099 -2.41702454 -21.31020644 -2.2175085 0 0 Z " fill="#555555" transform="translate(779,272)"/>
<path d="M0 0 C1.31977666 3.95932998 0.29824534 5.42387647 -1.25 9.25 C-1.71792969 10.41402344 -2.18585937 11.57804688 -2.66796875 12.77734375 C-3.10753906 13.84082031 -3.54710937 14.90429688 -4 16 C-4.28488281 16.70253906 -4.56976562 17.40507813 -4.86328125 18.12890625 C-5.54333192 19.7663467 -6.27108843 21.38371782 -7 23 C-7.28359375 23.63164063 -7.5671875 24.26328125 -7.859375 24.9140625 C-10.2849191 30.06337334 -13.27115212 34.68600984 -17 39 C-17.33 39 -17.66 39 -18 39 C-18 37.35 -18 35.7 -18 34 C-17.01 34 -16.02 34 -15 34 C-14.896875 32.948125 -14.79375 31.89625 -14.6875 30.8125 C-14.01671795 27.09270865 -13.10544241 25.07043685 -11 22 C-10.67 21.34 -10.34 20.68 -10 20 C-9.01 20 -8.02 20 -7 20 C-6.67 16.7 -6.34 13.4 -6 10 C-5.01 10 -4.02 10 -3 10 C-2.86722656 9.36191406 -2.73445312 8.72382812 -2.59765625 8.06640625 C-2.42105469 7.24011719 -2.24445312 6.41382813 -2.0625 5.5625 C-1.80146484 4.32693359 -1.80146484 4.32693359 -1.53515625 3.06640625 C-1 1 -1 1 0 0 Z " fill="#888888" transform="translate(655,720)"/>
<path d="M0 0 C8.70598576 13.05897864 8.54698468 28.40701458 8.25 43.5 C8.22987235 45.30596942 8.21163283 47.11196091 8.1953125 48.91796875 C8.1518861 53.27920584 8.08321855 57.63934824 8 62 C7.67 62 7.34 62 7 62 C6.67 49.79 6.34 37.58 6 25 C5.34 24.67 4.68 24.34 4 24 C2.63700198 19.91100593 2.62046091 15.90349791 2.37890625 11.6171875 C2.25386719 10.75351562 2.12882812 9.88984375 2 9 C1.34 8.67 0.68 8.34 0 8 C0 5.36 0 2.72 0 0 Z " fill="#9A9A9B" transform="translate(287,646)"/>
<path d="M0 0 C0.33 0 0.66 0 1 0 C1 1.98 1 3.96 1 6 C1.99 6 2.98 6 4 6 C5.35439668 8.70879335 5.06501451 11.00933268 5 14 C5.99 14 6.98 14 8 14 C9.35439668 16.70879335 9.06501451 19.00933268 9 22 C9.99 22 10.98 22 12 22 C12.33 24.64 12.66 27.28 13 30 C13.99 30 14.98 30 16 30 C16.33 32.97 16.66 35.94 17 39 C13.85297693 35.51579589 12.071499 32.13280962 10.2734375 27.875 C8.59416618 24.08376169 6.73893286 20.39070831 4.875 16.6875 C4.52598633 15.99358154 4.17697266 15.29966309 3.81738281 14.5847168 C3.48319336 13.92125244 3.14900391 13.25778809 2.8046875 12.57421875 C2.49031738 11.94725098 2.17594727 11.3202832 1.85205078 10.67431641 C1.17008823 9.33423068 0.45720327 8.00989856 -0.265625 6.69140625 C-1.32667279 4.24761002 -0.6949068 2.5016645 0 0 Z " fill="#A6A6A7" transform="translate(728,598)"/>
<path d="M0 0 C1.42795898 0.14308594 1.42795898 0.14308594 2.88476562 0.2890625 C5.19454799 0.52120143 7.5037103 0.75822172 9.8125 1 C9.8125 1.33 9.8125 1.66 9.8125 2 C-8.6675 2 -27.1475 2 -46.1875 2 C-46.1875 1.67 -46.1875 1.34 -46.1875 1 C-42.41733769 0.6587842 -38.64628834 0.32851717 -34.875 0 C-33.82248047 -0.09539062 -32.76996094 -0.19078125 -31.68554688 -0.2890625 C-20.97748463 -1.21160325 -10.68509049 -1.12076073 0 0 Z " fill="#555555" transform="translate(375.1875,271)"/>
<path d="M0 0 C15.84 0 31.68 0 48 0 C48 0.33 48 0.66 48 1 C35.45091662 2.49542023 23.5907021 3.27290615 11 2 C8.83333741 1.8124529 6.66667122 1.62494738 4.5 1.4375 C2.99976587 1.29409527 1.49965592 1.14933014 0 1 C0 0.67 0 0.34 0 0 Z " fill="#676868" transform="translate(881,807)"/>
<path d="M0 0 C1.49608773 0.01005392 2.99218203 0.01917549 4.48828125 0.02734375 C8.11732626 0.04915692 11.74611985 0.08355259 15.375 0.125 C15.375 0.455 15.375 0.785 15.375 1.125 C14.45686523 1.13958252 13.53873047 1.15416504 12.59277344 1.16918945 C9.17812091 1.23033515 5.76426328 1.30450217 2.35009766 1.38745117 C0.87396862 1.42065355 -0.60228594 1.44870017 -2.07861328 1.47143555 C-4.20399332 1.50506951 -6.32822804 1.55738519 -8.453125 1.61328125 C-9.7309082 1.63946533 -11.00869141 1.66564941 -12.32519531 1.69262695 C-15.84208672 2.15344485 -16.9704964 2.92687461 -19.625 5.125 C-22.45900286 5.33840383 -25.05516169 5.40964991 -27.875 5.3125 C-28.62007812 5.29896484 -29.36515625 5.28542969 -30.1328125 5.27148438 C-31.96385416 5.23627204 -33.79452169 5.18246851 -35.625 5.125 C-35.625 4.795 -35.625 4.465 -35.625 4.125 C-29.5703125 2.7578125 -29.5703125 2.7578125 -26.625 2.125 C-25.9757959 1.95597168 -25.3265918 1.78694336 -24.65771484 1.61279297 C-16.48769963 -0.33015009 -8.33518327 -0.09810453 0 0 Z " fill="#777777" transform="translate(176.625,568.875)"/>
<path d="M0 0 C0.33 0 0.66 0 1 0 C1.77797803 3.44527611 2.12823674 6.63061138 2.1328125 10.16015625 C2.13474609 11.5977832 2.13474609 11.5977832 2.13671875 13.06445312 C2.13285156 14.05380859 2.12898437 15.04316406 2.125 16.0625 C2.12886719 17.05572266 2.13273438 18.04894531 2.13671875 19.07226562 C2.13542969 20.02939453 2.13414062 20.98652344 2.1328125 21.97265625 C2.13168457 22.84156494 2.13055664 23.71047363 2.12939453 24.60571289 C2.00620531 26.88517834 1.58245054 28.80256021 1 31 C0.77947273 34.25890302 0.60759223 37.5118027 0.48242188 40.77539062 C0.39140077 42.52196538 0.20325467 44.26290594 0 46 C-0.99 46.495 -0.99 46.495 -2 47 C-2.66 47.99 -3.32 48.98 -4 50 C-4 48.02 -4 46.04 -4 44 C-3.01 44 -2.02 44 -1 44 C-1.01160156 43.24460937 -1.02320313 42.48921875 -1.03515625 41.7109375 C-1.10608486 33.05764694 -0.79984942 24.4586187 -0.35571289 15.81787109 C-0.08939054 10.53604845 0.0495424 5.28865122 0 0 Z " fill="#D0D0D0" transform="translate(657,674)"/>
<path d="M0 0 C2 1 2 1 3.06152344 3.64282227 C6.3079515 14.83059428 6.47079535 25.35095157 6.25 36.9375 C6.22987959 38.79620445 6.21163873 40.65493023 6.1953125 42.51367188 C6.15181249 47.00965413 6.0831005 51.50458254 6 56 C5.67 56 5.34 56 5 56 C4.98018066 54.83428467 4.96036133 53.66856934 4.93994141 52.4675293 C4.86391041 48.14553095 4.77518924 43.82387038 4.68261719 39.50219727 C4.64431706 37.63117132 4.609466 35.76007147 4.578125 33.88891602 C4.53249676 31.20041481 4.47449912 28.51242277 4.4140625 25.82421875 C4.40251129 24.98662521 4.39096008 24.14903168 4.37905884 23.28605652 C4.27953543 19.37626963 4.2152698 17.3229047 2 14 C1.55058745 11.61700383 1.18393057 9.21774516 0.875 6.8125 C0.70742188 5.54019531 0.53984375 4.26789062 0.3671875 2.95703125 C0.24601563 1.98121094 0.12484375 1.00539063 0 0 Z " fill="#EDEDEE" transform="translate(1017,647)"/>
<path d="M0 0 C3.75128049 0.72806738 7.47148327 1.54657922 11.1875 2.4375 C12.23292969 2.68371094 13.27835938 2.92992187 14.35546875 3.18359375 C17 4 17 4 19 6 C21.04788482 6.8375807 23.1236602 7.52034987 25.22265625 8.21875 C27 9 27 9 28 11 C27.030625 10.690625 26.06125 10.38125 25.0625 10.0625 C20.76335509 8.82032903 16.44657366 8.38315147 12 8 C11.67 7.01 11.34 6.02 11 5 C7.7 4.67 4.4 4.34 1 4 C0.67 2.68 0.34 1.36 0 0 Z " fill="#8D8D8D" transform="translate(782,273)"/>
<path d="M0 0 C-3.40559747 3.60592673 -6.81341311 6.35134299 -11 9 C-12.5778125 10.11375 -12.5778125 10.11375 -14.1875 11.25 C-17 13 -17 13 -20 13 C-20 11.68 -20 10.36 -20 9 C-17.69 9 -15.38 9 -13 9 C-12.67 7.68 -12.34 6.36 -12 5 C-10.68 5 -9.36 5 -8 5 C-8 3.68 -8 2.36 -8 1 C-5.07175348 0.02391783 -3.04386724 -0.08226668 0 0 Z " fill="#949495" transform="translate(616,782)"/>
<path d="M0 0 C0.33 0 0.66 0 1 0 C1.25 7.625 1.25 7.625 -1 11 C-1.24144163 13.96884465 -1.37307097 16.851868 -1.4140625 19.82421875 C-1.43342865 20.68561966 -1.4527948 21.54702057 -1.4727478 22.43452454 C-1.5325203 25.18541568 -1.57891948 27.93634873 -1.625 30.6875 C-1.66318194 32.55275261 -1.7022338 34.41798763 -1.7421875 36.28320312 C-1.8382199 40.85532586 -1.9222595 45.42753114 -2 50 C-2.33 50 -2.66 50 -3 50 C-3.07471359 44.48652029 -3.12886615 38.97334178 -3.16479492 33.45947266 C-3.17978865 31.58767557 -3.2001905 29.71591306 -3.22631836 27.84423828 C-3.48676127 8.69402417 -3.48676127 8.69402417 0 0 Z " fill="#EDEDED" transform="translate(60,653)"/>
<path d="M0 0 C0.66 0.33 1.32 0.66 2 1 C1.01 2.485 1.01 2.485 0 4 C-2.625 4.1875 -2.625 4.1875 -5 4 C-5.08314453 4.91845703 -5.08314453 4.91845703 -5.16796875 5.85546875 C-6 8 -6 8 -8.36328125 9.30078125 C-9.33652344 9.63464844 -10.30976563 9.96851563 -11.3125 10.3125 C-12.27800781 10.65925781 -13.24351562 11.00601562 -14.23828125 11.36328125 C-17.00971084 12.00223885 -18.37100033 11.96792149 -21 11 C-15.51052743 7.96304845 -10.00432369 4.95562297 -4.4375 2.0625 C-3.63183594 1.64097656 -2.82617188 1.21945312 -1.99609375 0.78515625 C-1.00802734 0.39650391 -1.00802734 0.39650391 0 0 Z " fill="#939394" transform="translate(286,285)"/>
<path d="M0 0 C0.33 0 0.66 0 1 0 C1 2.64 1 5.28 1 8 C0.01 8.33 -0.98 8.66 -2 9 C-1.96519531 9.61488281 -1.93039062 10.22976563 -1.89453125 10.86328125 C-1.86746094 11.67152344 -1.84039063 12.47976563 -1.8125 13.3125 C-1.77769531 14.11300781 -1.74289062 14.91351563 -1.70703125 15.73828125 C-2 18 -2 18 -3.38671875 19.79296875 C-5 21 -5 21 -7 21 C-6.31876833 17.18650724 -5.29267528 13.60945717 -4.0625 9.9375 C-3.72347656 8.91527344 -3.38445313 7.89304687 -3.03515625 6.83984375 C-2.16203593 4.44452877 -1.20019546 2.2443117 0 0 Z " fill="#B6B6B7" transform="translate(646,341)"/>
<path d="M0 0 C1.32 0.33 2.64 0.66 4 1 C4 3 4 3 2.49609375 4.515625 C1.81675781 5.08796875 1.13742187 5.6603125 0.4375 6.25 C-0.28824219 6.86488281 -1.01398438 7.47976563 -1.76171875 8.11328125 C-2.50035156 8.73589844 -3.23898438 9.35851562 -4 10 C-4.66644531 10.59167969 -5.33289063 11.18335938 -6.01953125 11.79296875 C-6.63183594 12.33566406 -7.24414062 12.87835937 -7.875 13.4375 C-8.42929688 13.93121094 -8.98359375 14.42492187 -9.5546875 14.93359375 C-11 16 -11 16 -13 16 C-13 15.01 -13 14.02 -13 13 C-12.34 13 -11.68 13 -11 13 C-11 12.34 -11 11.68 -11 11 C-9.68 11 -8.36 11 -7 11 C-7 9.68 -7 8.36 -7 7 C-6.01 7 -5.02 7 -4 7 C-4 6.01 -4 5.02 -4 4 C-2.68 4 -1.36 4 0 4 C0 2.68 0 1.36 0 0 Z " fill="#949494" transform="translate(258,771)"/>
<path d="M0 0 C0.66 0 1.32 0 2 0 C0.60636875 8.77167903 -1.56501528 16.80888258 -5 25 C-5.33 25 -5.66 25 -6 25 C-6.14285714 17.57142857 -6.14285714 17.57142857 -5 14 C-4.01 14 -3.02 14 -2 14 C-1.93941406 13.07316406 -1.87882812 12.14632812 -1.81640625 11.19140625 C-1.73261719 9.99386719 -1.64882813 8.79632812 -1.5625 7.5625 C-1.48128906 6.36753906 -1.40007812 5.17257812 -1.31640625 3.94140625 C-1 1 -1 1 0 0 Z " fill="#A9AAAB" transform="translate(292,709)"/>
<path d="M0 0 C3.25191199 3.81612385 5.11627147 8.23299891 7.1875 12.75 C7.73954102 13.93916016 7.73954102 13.93916016 8.30273438 15.15234375 C9.20599492 17.09963272 10.1035641 19.04955989 11 21 C9.68 21 8.36 21 7 21 C7 19.35 7 17.7 7 16 C6.01 16 5.02 16 4 16 C3.67 13.03 3.34 10.06 3 7 C2.01 7 1.02 7 0 7 C0 4.69 0 2.38 0 0 Z " fill="#9D9D9D" transform="translate(523,387)"/>
<path d="M0 0 C2.475 0.99 2.475 0.99 5 2 C5 3.98 5 5.96 5 8 C5.99 8 6.98 8 8 8 C9.35439668 10.70879335 9.06501451 13.00933268 9 16 C9.99 16 10.98 16 12 16 C12 17.98 12 19.96 12 22 C8.24132215 17.77572017 6.0563392 13.28280123 3.75 8.1875 C3.20472656 7.00510742 3.20472656 7.00510742 2.6484375 5.79882812 C1.75942269 3.86873018 0.87884913 1.93474795 0 0 Z " fill="#939394" transform="translate(667,482)"/>
<path d="M0 0 C1.47649488 2.21474231 2.69311933 4.25769949 3.875 6.6171875 C4.22046875 7.30683594 4.5659375 7.99648438 4.921875 8.70703125 C5.27765625 9.42246094 5.6334375 10.13789063 6 10.875 C6.35578125 11.58269531 6.7115625 12.29039062 7.078125 13.01953125 C8.87946202 16.6289267 10.57693384 20.21998051 12 24 C10.68 24 9.36 24 8 24 C8 21.69 8 19.38 8 17 C7.01 17 6.02 17 5 17 C4.67 14.36 4.34 11.72 4 9 C3.01 9 2.02 9 1 9 C0.67 6.03 0.34 3.06 0 0 Z " fill="#898A8A" transform="translate(567,475)"/>
<path d="M0 0 C-0.54074373 3.78520613 -2.07572746 5.59177555 -5 8 C-5.99 8 -6.98 8 -8 8 C-8.33 9.65 -8.66 11.3 -9 13 C-10.65 13 -12.3 13 -14 13 C-3.15384615 0 -3.15384615 0 0 0 Z " fill="#A9A9AB" transform="translate(244,313)"/>
<path d="M0 0 C3.45547532 3.95239102 5.61076114 7.95454879 7.75 12.6875 C8.22373047 13.70166992 8.22373047 13.70166992 8.70703125 14.73632812 C11 19.72427963 11 19.72427963 11 22 C10.34 22 9.68 22 9 22 C8.67 20.02 8.34 18.04 8 16 C6.68 15.67 5.36 15.34 4 15 C4 12.69 4 10.38 4 8 C2.68 7.67 1.36 7.34 0 7 C0 4.69 0 2.38 0 0 Z " fill="#818181" transform="translate(628,598)"/>
<path d="M0 0 C5.28 0 10.56 0 16 0 C16 0.99 16 1.98 16 3 C16.99 3.33 17.98 3.66 19 4 C12.02330843 4.39325819 6.48343811 3.63096039 0 1 C0 0.67 0 0.34 0 0 Z " fill="#9A9B9B" transform="translate(501,803)"/>
<path d="M0 0 C0.33 0 0.66 0 1 0 C1.37104708 7.54462403 1.37104708 7.54462403 -0.375 9.6875 C-0.91125 10.120625 -1.4475 10.55375 -2 11 C-2.309375 11.86625 -2.61875 12.7325 -2.9375 13.625 C-4 16 -4 16 -6.125 16.8125 C-6.74375 16.874375 -7.3625 16.93625 -8 17 C-7.73445312 16.47921875 -7.46890625 15.9584375 -7.1953125 15.421875 C-5.69878689 12.38969892 -4.28808257 9.32191863 -2.875 6.25 C-2.33617187 5.07953125 -1.79734375 3.9090625 -1.2421875 2.703125 C-0.83226562 1.81109375 -0.42234375 0.9190625 0 0 Z " fill="#9E9E9E" transform="translate(179,411)"/>
<path d="M0 0 C0.99 0.33 1.98 0.66 3 1 C0.32521395 4.66544755 -2.03864522 6.82125487 -6 9 C-6.721875 9.556875 -7.44375 10.11375 -8.1875 10.6875 C-10 12 -10 12 -12 12 C-12 11.01 -12 10.02 -12 9 C-11.01 8.67 -10.02 8.34 -9 8 C-9 7.34 -9 6.68 -9 6 C-7.68 6 -6.36 6 -5 6 C-4.67 4.68 -4.34 3.36 -4 2 C-2.68 2 -1.36 2 0 2 C0 1.34 0 0.68 0 0 Z " fill="#A8A8A8" transform="translate(983,777)"/>
<path d="M0 0 C3 1 3 1 5 4 C7.05925139 4.72382467 7.05925139 4.72382467 9 5 C9 6.32 9 7.64 9 9 C9.99 9.33 10.98 9.66 12 10 C13.38671875 11.62890625 13.38671875 11.62890625 14.6875 13.5625 C15.12449219 14.20316406 15.56148437 14.84382812 16.01171875 15.50390625 C16.50091797 16.24447266 16.50091797 16.24447266 17 17 C13.15588253 15.43387807 10.84049791 12.97905879 8 10 C7.13375 9.13375 6.2675 8.2675 5.375 7.375 C4.59125 6.59125 3.8075 5.8075 3 5 C2.401875 4.443125 1.80375 3.88625 1.1875 3.3125 C0 2 0 2 0 0 Z " fill="#767676" transform="translate(813,766)"/>
<path d="M0 0 C0.33 0 0.66 0 1 0 C1.49015317 7.2297593 1.49015317 7.2297593 -0.75 10.75 C-1.4925 11.4925 -2.235 12.235 -3 13 C-3.7425 13.763125 -4.485 14.52625 -5.25 15.3125 C-6.11625 16.1478125 -6.11625 16.1478125 -7 17 C-7 15.35 -7 13.7 -7 12 C-6.01 12 -5.02 12 -4 12 C-3.896875 10.948125 -3.79375 9.89625 -3.6875 8.8125 C-3.02191729 5.12154134 -2.18245468 3.00087519 0 0 Z " fill="#8A8B8A" transform="translate(644,742)"/>
<path d="M0 0 C0.66 0.33 1.32 0.66 2 1 C1.67 1.99 1.34 2.98 1 4 C-0.65 4 -2.3 4 -4 4 C-4.66 5.32 -5.32 6.64 -6 8 C-8.64 8 -11.28 8 -14 8 C-10.86873093 4.05187813 -7.59589511 2.98144881 -2.92578125 1.61328125 C-1.01359726 1.16666387 -1.01359726 1.16666387 0 0 Z " fill="#8E8E8E" transform="translate(714,277)"/>
<path d="M0 0 C2.97 0 5.94 0 9 0 C9.33 0.99 9.66 1.98 10 3 C11.87387216 3.80212628 11.87387216 3.80212628 14.0625 4.1875 C14.79597656 4.34605469 15.52945313 4.50460937 16.28515625 4.66796875 C16.85105469 4.77753906 17.41695312 4.88710938 18 5 C18 5.99 18 6.98 18 8 C14.88042385 7.29231837 11.976 6.29543903 9 5.125 C8.154375 4.79757812 7.30875 4.47015625 6.4375 4.1328125 C4.00350228 3.00162766 2.07985724 1.68506953 0 0 Z " fill="#A5A6A7" transform="translate(848,795)"/>
<path d="M0 0 C-0.66 1.32 -1.32 2.64 -2 4 C-7.28 4 -12.56 4 -18 4 C-18 3.67 -18 3.34 -18 3 C-17.30132812 2.86722656 -16.60265625 2.73445313 -15.8828125 2.59765625 C-14.51769531 2.33275391 -14.51769531 2.33275391 -13.125 2.0625 C-12.22007812 1.88847656 -11.31515625 1.71445312 -10.3828125 1.53515625 C-3.234375 -0.0703125 -3.234375 -0.0703125 0 0 Z " fill="#949494" transform="translate(329,273)"/>
<path d="M0 0 C-1.05078125 1.984375 -1.05078125 1.984375 -3 4 C-6.35546875 4.390625 -6.35546875 4.390625 -10.1875 4.25 C-12.09595703 4.19585937 -12.09595703 4.19585937 -14.04296875 4.140625 C-15.01878906 4.09421875 -15.99460937 4.0478125 -17 4 C-17 3.67 -17 3.34 -17 3 C-11.17745757 1.03181664 -6.16618181 -0.40214229 0 0 Z " fill="#A3A3A3" transform="translate(735,273)"/>
<path d="M0 0 C3.92591727 4.3621303 7.02897038 9.46491681 9 15 C8.63671875 17.30859375 8.63671875 17.30859375 8 19 C8 18.01 8 17.02 8 16 C7.01 16 6.02 16 5 16 C4.67 13.36 4.34 10.72 4 8 C3.01 8 2.02 8 1 8 C0.67 5.36 0.34 2.72 0 0 Z " fill="#767677" transform="translate(278,627)"/>
<path d="M0 0 C1.32 0 2.64 0 4 0 C4 1.32 4 2.64 4 4 C4.66 4 5.32 4 6 4 C6.33 5.32 6.66 6.64 7 8 C7.66 8 8.32 8 9 8 C12.125 14.625 12.125 14.625 11 18 C10.62488281 17.3709375 10.24976563 16.741875 9.86328125 16.09375 C6.63318276 10.6912679 3.35377299 5.32658064 0 0 Z " fill="#838383" transform="translate(342,568)"/>
<path d="M0 0 C0.33 0 0.66 0 1 0 C1.49873087 4.07296876 1.88737164 7.56775103 -0.3359375 11.15625 C-1.82463976 12.86161784 -3.33917726 14.46275038 -5 16 C-5.66 15.67 -6.32 15.34 -7 15 C-6.36771484 13.75283203 -6.36771484 13.75283203 -5.72265625 12.48046875 C-5.17480469 11.39378906 -4.62695312 10.30710937 -4.0625 9.1875 C-3.51722656 8.10855469 -2.97195312 7.02960938 -2.41015625 5.91796875 C-0.9414793 3.03788473 -0.9414793 3.03788473 0 0 Z " fill="#ABACAD" transform="translate(199,370)"/>
<path d="M0 0 C3.45603329 5.18404993 6.02904162 10.08712487 8 16 C6.68 16 5.36 16 4 16 C4 13.69 4 11.38 4 9 C2.68 8.67 1.36 8.34 0 8 C0 5.36 0 2.72 0 0 Z " fill="#7E7E7F" transform="translate(868,346)"/>
<path d="M0 0 C1.32 0 2.64 0 4 0 C4.33 0.99 4.66 1.98 5 3 C7.01508358 3.73323796 7.01508358 3.73323796 9 4 C9 5.32 9 6.64 9 8 C9.99 8 10.98 8 12 8 C12.33 9.65 12.66 11.3 13 13 C8.11950075 9.0580583 3.9419417 4.88049925 0 0 Z " fill="#888889" transform="translate(313,535)"/>
<path d="M0 0 C5.41798672 0.69165788 10.6822785 1.75799248 16 3 C16 3.33 16 3.66 16 4 C11.05 4 6.1 4 1 4 C0.67 2.68 0.34 1.36 0 0 Z " fill="#888889" transform="translate(193,570)"/>
<path d="M0 0 C0.66 0.33 1.32 0.66 2 1 C-5.21095718 9.93576826 -5.21095718 9.93576826 -10 11 C-10.99 11 -11.98 11 -13 11 C-8.73958774 7.23645964 -4.48151089 3.50118038 0 0 Z " fill="#888888" transform="translate(685,293)"/>
<path d="M0 0 C1.32 0.33 2.64 0.66 4 1 C2.37660195 2.70884005 0.70680947 4.37446717 -1 6 C-1.66 6 -2.32 6 -3 6 C-3.2475 6.61875 -3.495 7.2375 -3.75 7.875 C-5.20628639 10.35068687 -6.37812506 10.95125002 -9 12 C-9 10.68 -9 9.36 -9 8 C-8.360625 7.896875 -7.72125 7.79375 -7.0625 7.6875 C-6.381875 7.460625 -5.70125 7.23375 -5 7 C-4.67 6.01 -4.34 5.02 -4 4 C-3.01 4 -2.02 4 -1 4 C-0.67 2.68 -0.34 1.36 0 0 Z " fill="#858585" transform="translate(625,770)"/>
<path d="M0 0 C0.66 0 1.32 0 2 0 C2 0.66 2 1.32 2 2 C-3.05241666 6.3156059 -6.39521488 7.65237973 -13 8 C-9.98767965 4.36011291 -7.06671628 3.06111728 -2.70703125 1.61328125 C-0.99194384 1.13407172 -0.99194384 1.13407172 0 0 Z " fill="#8D8E8F" transform="translate(127,578)"/>
<path d="M0 0 C1.86718689 2.80078034 3.54204238 5.62725376 5.1875 8.5625 C5.73792969 9.53316406 6.28835938 10.50382813 6.85546875 11.50390625 C7.23316406 12.32761719 7.61085938 13.15132812 8 14 C7.67 14.66 7.34 15.32 7 16 C6.01 15.67 5.02 15.34 4 15 C4 13.02 4 11.04 4 9 C2.68 8.67 1.36 8.34 0 8 C0 5.36 0 2.72 0 0 Z " fill="#858687" transform="translate(949,509)"/>
<path d="M0 0 C4.88049925 3.9419417 9.0580583 8.11950075 13 13 C10.03 12.505 10.03 12.505 7 12 C7 10.68 7 9.36 7 8 C6.01 8 5.02 8 4 8 C3.67 7.01 3.34 6.02 3 5 C2.01 4.67 1.02 4.34 0 4 C0 2.68 0 1.36 0 0 Z " fill="#777778" transform="translate(832,297)"/>
<path d="M0 0 C0.56203125 0.30679688 1.1240625 0.61359375 1.703125 0.9296875 C4.06346934 2.02957585 6.20465562 2.60095851 8.75 3.125 C9.54921875 3.29257812 10.3484375 3.46015625 11.171875 3.6328125 C11.77515625 3.75398437 12.3784375 3.87515625 13 4 C13 5.32 13 6.64 13 8 C9.84420806 7.36884161 7.52724785 6.27895408 4.8125 4.5625 C4.11769531 4.13066406 3.42289062 3.69882812 2.70703125 3.25390625 C1 2 1 2 0 0 Z " fill="#949596" transform="translate(471,787)"/>
<path d="M0 0 C0.33 0 0.66 0 1 0 C1 3.63 1 7.26 1 11 C-0.32 11.33 -1.64 11.66 -3 12 C-3.33 12.66 -3.66 13.32 -4 14 C-3.36843005 8.94744036 -1.86540627 4.70406799 0 0 Z " fill="#A1A2A3" transform="translate(65,639)"/>
<path d="M0 0 C4.62 0 9.24 0 14 0 C14.33 1.32 14.66 2.64 15 4 C9.94468132 3.22225866 4.98283716 2.14051606 0 1 C0 0.67 0 0.34 0 0 Z " fill="#939494" transform="translate(866,803)"/>
<path d="M0 0 C4.62 0 9.24 0 14 0 C14 0.33 14 0.66 14 1 C12.4188708 1.50692692 10.83498617 2.00526443 9.25 2.5 C8.36828125 2.7784375 7.4865625 3.056875 6.578125 3.34375 C4 4 4 4 0 4 C0 2.68 0 1.36 0 0 Z " fill="#8E8F90" transform="translate(929,803)"/>
<path d="M0 0 C1.32 0 2.64 0 4 0 C4.70005949 2.07914664 5.38462244 4.16351586 6.0625 6.25 C6.44535156 7.41015625 6.82820313 8.5703125 7.22265625 9.765625 C7.95211763 12.80077085 8.11889082 14.15703213 7 17 C6.20788071 15.10435574 5.41632424 13.20847629 4.625 11.3125 C4.18414062 10.25675781 3.74328125 9.20101562 3.2890625 8.11328125 C2.17242538 5.41643343 1.07708199 2.71283736 0 0 Z " fill="#7E7E7E" transform="translate(424,726)"/>
<path d="M0 0 C1.32 0.33 2.64 0.66 4 1 C2.87895467 2.31587941 1.75303035 3.62760353 0.625 4.9375 C-0.00148438 5.66839844 -0.62796875 6.39929688 -1.2734375 7.15234375 C-3 9 -3 9 -5 10 C-4.67 8.02 -4.34 6.04 -4 4 C-3.01 4 -2.02 4 -1 4 C-0.67 2.68 -0.34 1.36 0 0 Z " fill="#9A9A9A" transform="translate(267,762)"/>
<path d="M0 0 C3.76610404 5.64915606 4.22755952 10.40077399 4 17 C3.67 17 3.34 17 3 17 C3 15.02 3 13.04 3 11 C2.01 10.67 1.02 10.34 0 10 C0 6.7 0 3.4 0 0 Z " fill="#878787" transform="translate(653,650)"/>
<path d="M0 0 C0.89674777 2.51089376 1.13172674 3.64535109 0.1875 6.1875 C-1 8 -1 8 -3 9 C-3.33 9.99 -3.66 10.98 -4 12 C-6.0625 12.6875 -6.0625 12.6875 -8 13 C-6.50079488 9.88626628 -4.91847864 6.87771795 -3 4 C-2.34 4 -1.68 4 -1 4 C-0.67 2.68 -0.34 1.36 0 0 Z " fill="#929394" transform="translate(663,313)"/>
<path d="M0 0 C0.33 0 0.66 0 1 0 C1 1.65 1 3.3 1 5 C-0.32 5.33 -1.64 5.66 -3 6 C-3 7.32 -3 8.64 -3 10 C-4.32 10 -5.64 10 -7 10 C-5.32971708 6.05205855 -2.8204435 3.18203882 0 0 Z " fill="#959595" transform="translate(85,609)"/>
<path d="M0 0 C4.62 0 9.24 0 14 0 C14.33 1.32 14.66 2.64 15 4 C9.94468132 3.22225866 4.98283716 2.14051606 0 1 C0 0.67 0 0.34 0 0 Z " fill="#858585" transform="translate(214,486)"/>
<path d="M0 0 C0.6875 1.6875 0.6875 1.6875 1 4 C-0.3125 6.75 -0.3125 6.75 -2 9 C-2.66 9 -3.32 9 -4 9 C-4.33 9.99 -4.66 10.98 -5 12 C-5.66 11.67 -6.32 11.34 -7 11 C-6.40361667 9.72549553 -5.79752584 8.45553123 -5.1875 7.1875 C-4.85105469 6.47980469 -4.51460938 5.77210938 -4.16796875 5.04296875 C-2.99354529 2.98870965 -1.74371984 1.58383722 0 0 Z " fill="#9D9D9F" transform="translate(77,619)"/>
<path d="M0 0 C0.33 0 0.66 0 1 0 C1.7230444 7.10993658 1.7230444 7.10993658 -0.3359375 9.64453125 C-2 11 -2 11 -5 13 C-3.78184562 8.31479085 -2.30440013 4.29456388 0 0 Z " fill="#939394" transform="translate(154,461)"/>
<path d="M0 0 C0.33 0 0.66 0 1 0 C1 2.31 1 4.62 1 7 C0.360625 7.226875 -0.27875 7.45375 -0.9375 7.6875 C-3.27193661 8.85250896 -3.27193661 8.85250896 -3.75 11.625 C-3.8325 12.40875 -3.915 13.1925 -4 14 C-4.99 14 -5.98 14 -7 14 C-4.69 9.38 -2.38 4.76 0 0 Z " fill="#7F7F80" transform="translate(162,445)"/>
<path d="M0 0 C1.07894531 0.04640625 2.15789063 0.0928125 3.26953125 0.140625 C4.35621094 0.17671875 5.44289063 0.2128125 6.5625 0.25 C7.39394531 0.29640625 8.22539063 0.3428125 9.08203125 0.390625 C9.08203125 0.720625 9.08203125 1.050625 9.08203125 1.390625 C4.07637665 2.70790253 -0.78293531 3.74874582 -5.91796875 4.390625 C-4.20732299 1.34147397 -3.55091093 0.47535622 0 0 Z " fill="#727273" transform="translate(569.91796875,802.609375)"/>
<path d="M0 0 C2 1 2 1 3.10546875 4.23828125 C3.47473728 5.59404331 3.83503685 6.95227218 4.1875 8.3125 C4.37763672 8.98990234 4.56777344 9.66730469 4.76367188 10.36523438 C5.69044331 13.86371107 6.38570259 16.56663499 5 20 C2.48395138 15.51936548 1.43656464 11.71352703 0.8125 6.625 C0.65394531 5.37976563 0.49539063 4.13453125 0.33203125 2.8515625 C0.22246094 1.91054688 0.11289062 0.96953125 0 0 Z " fill="#636364" transform="translate(1017,647)"/>
<path d="M0 0 C2.43836709 2.43836709 3.63091698 4.92380744 5.1875 8 C5.73792969 9.0725 6.28835938 10.145 6.85546875 11.25 C7.42201172 12.61125 7.42201172 12.61125 8 14 C7.67 14.66 7.34 15.32 7 16 C4 12.375 4 12.375 4 9 C3.01 8.67 2.02 8.34 1 8 C0.67 5.36 0.34 2.72 0 0 Z " fill="#7A7A7A" transform="translate(896,403)"/>
<path d="M0 0 C2.31 0 4.62 0 7 0 C7.33 0.99 7.66 1.98 8 3 C8.99 3.33 9.98 3.66 11 4 C10.67 4.99 10.34 5.98 10 7 C8.33073546 6.02526874 6.66464358 5.04510211 5 4.0625 C4.071875 3.51722656 3.14375 2.97195313 2.1875 2.41015625 C1.465625 1.94480469 0.74375 1.47945312 0 1 C0 0.67 0 0.34 0 0 Z " fill="#8B8B8C" transform="translate(835,787)"/>
<path d="M0 0 C0 2.91943385 -0.42837917 4.81039056 -1.3125 7.5625 C-1.55613281 8.34753906 -1.79976562 9.13257813 -2.05078125 9.94140625 C-3 12 -3 12 -6 14 C-6 12.02 -6 10.04 -6 8 C-5.01 8 -4.02 8 -3 8 C-2.87625 7.05125 -2.7525 6.1025 -2.625 5.125 C-2 2 -2 2 0 0 Z " fill="#6F7071" transform="translate(1017,730)"/>
<path d="M0 0 C0.2475 0.515625 0.495 1.03125 0.75 1.5625 C1.47784518 2.9817981 2.23437502 4.38831876 3.05859375 5.75390625 C4.09427299 7.47048188 5.05147096 9.23377351 6 11 C5.67 11.66 5.34 12.32 5 13 C0.17970402 9.14376321 0.17970402 9.14376321 -0.33203125 5.88671875 C-0.3145776 3.92143786 -0.16596091 1.95833873 0 0 Z " fill="#8D8D8E" transform="translate(1006,623)"/>
<path d="M0 0 C1 4 1 4 1 6 C4.3 6 7.6 6 11 6 C11 6.33 11 6.66 11 7 C6.38 7.66 1.76 8.32 -3 9 C-2.01 6.03 -1.02 3.06 0 0 Z " fill="#313232" transform="translate(146,477)"/>
<path d="M0 0 C3.71599191 -0.20086443 4.77208445 -0.1519437 8 2 C9.65549531 2.38499891 11.3222433 2.72793135 13 3 C13 3.33 13 3.66 13 4 C9.37 4 5.74 4 2 4 C2 3.34 2 2.68 2 2 C1.34 2 0.68 2 0 2 C0 1.34 0 0.68 0 0 Z " fill="#999999" transform="translate(404,277)"/>
<path d="M0 0 C1.32 0 2.64 0 4 0 C4 1.98 4 3.96 4 6 C4.99 6 5.98 6 7 6 C7 7.98 7 9.96 7 12 C3.6497537 8.18765077 1.83025211 4.66714289 0 0 Z " fill="#959697" transform="translate(794,737)"/>
<path d="M0 0 C0.66 0 1.32 0 2 0 C1.68806536 1.72926874 1.37542638 3.45841044 1.0625 5.1875 C0.88847656 6.15042969 0.71445312 7.11335937 0.53515625 8.10546875 C0.0476265 10.74239972 -0.46671105 13.3719905 -1 16 C-1.33 16 -1.66 16 -2 16 C-1.85975781 13.52039864 -1.7130815 11.04147598 -1.5625 8.5625 C-1.52318359 7.85544922 -1.48386719 7.14839844 -1.44335938 6.41992188 C-1.11328125 1.11328125 -1.11328125 1.11328125 0 0 Z " fill="#626263" transform="translate(292,709)"/>
<path d="M0 0 C1.10701882 4.42807528 0.94972835 5.10054331 -1 9 C-2.29788956 11.02318078 -3.62464661 13.02866014 -5 15 C-5.66 14.67 -6.32 14.34 -7 14 C-4.69 9.38 -2.38 4.76 0 0 Z " fill="#737373" transform="translate(170,429)"/>
<path d="M0 0 C1.9582239 1.9582239 2.89415297 3.48948201 4.125 5.9375 C4.47820313 6.62714844 4.83140625 7.31679688 5.1953125 8.02734375 C6 10 6 10 6 13 C5.34 13 4.68 13 4 13 C4 11.68 4 10.36 4 9 C3.01 9 2.02 9 1 9 C0.67 6.03 0.34 3.06 0 0 Z " fill="#909090" transform="translate(904,419)"/>
<path d="M0 0 C0.33 0 0.66 0 1 0 C1 1.98 1 3.96 1 6 C-0.32 6.33 -1.64 6.66 -3 7 C-3 7.99 -3 8.98 -3 10 C-4.32 10.33 -5.64 10.66 -7 11 C-5.85845641 9.16399255 -4.71165684 7.33125195 -3.5625 5.5 C-2.92441406 4.4790625 -2.28632813 3.458125 -1.62890625 2.40625 C-0.82259766 1.21515625 -0.82259766 1.21515625 0 0 Z " fill="#868687" transform="translate(215,343)"/>
<path d="M0 0 C1.55693206 2.33539809 2.90200646 4.57968756 4.1875 7.0625 C4.55230469 7.75472656 4.91710937 8.44695312 5.29296875 9.16015625 C5.52628906 9.76730469 5.75960937 10.37445313 6 11 C5.67 11.66 5.34 12.32 5 13 C4.67 11.68 4.34 10.36 4 9 C2.68 8.67 1.36 8.34 0 8 C0 5.36 0 2.72 0 0 Z " fill="#7F7F80" transform="translate(559,459)"/>
<path d="M0 0 C3.32643967 2.98232523 5.29152862 5.86370087 7 10 C6.67 10.66 6.34 11.32 6 12 C5.01 11.67 4.02 11.34 3 11 C2.87625 10.030625 2.7525 9.06125 2.625 8.0625 C2.41875 7.051875 2.2125 6.04125 2 5 C1.34 4.67 0.68 4.34 0 4 C0 2.68 0 1.36 0 0 Z " fill="#6E6E6E" transform="translate(991,595)"/>
<path d="M0 0 C1.32 0.33 2.64 0.66 4 1 C4 4.3 4 7.6 4 11 C3.34 9.68 2.68 8.36 2 7 C1.62875 6.319375 1.2575 5.63875 0.875 4.9375 C0 3 0 3 0 0 Z " fill="#6D6D6D" transform="translate(639,420)"/>
<path d="M0 0 C3.96 0 7.92 0 12 0 C12 0.33 12 0.66 12 1 C11.39671875 1.13277344 10.7934375 1.26554688 10.171875 1.40234375 C9.37265625 1.57894531 8.5734375 1.75554688 7.75 1.9375 C6.96109375 2.11152344 6.1721875 2.28554688 5.359375 2.46484375 C3.23121297 2.947556 1.11467158 3.46163178 -1 4 C-0.67 2.68 -0.34 1.36 0 0 Z " fill="#727273" transform="translate(202,803)"/>
<path d="M0 0 C2.31 0 4.62 0 7 0 C7.33 0.99 7.66 1.98 8 3 C8.99 3.66 9.98 4.32 11 5 C4.6 4.50769231 4.6 4.50769231 1.5625 1.9375 C1.046875 1.298125 0.53125 0.65875 0 0 Z " fill="#8B8C8D" transform="translate(484,795)"/>
<path d="M0 0 C-2.3125 2.5 -2.3125 2.5 -5 5 C-5.99 5 -6.98 5 -8 5 C-8 3.68 -8 2.36 -8 1 C-5.07175348 0.02391783 -3.04386724 -0.08226668 0 0 Z " fill="#A6A7A7" transform="translate(616,782)"/>
<path d="M0 0 C0.33 0 0.66 0 1 0 C1 1.98 1 3.96 1 6 C1.99 6 2.98 6 4 6 C4 8.31 4 10.62 4 13 C0.10769231 8.04615385 0.10769231 8.04615385 -1 5 C-0.625 2.25 -0.625 2.25 0 0 Z " fill="#8F9090" transform="translate(728,598)"/>
<path d="M0 0 C0 3.52100905 -0.58328868 4.10031314 -2.8125 6.6875 C-3.59560547 7.62142578 -3.59560547 7.62142578 -4.39453125 8.57421875 C-6 10 -6 10 -9 10 C-9 9.34 -9 8.68 -9 8 C-7.28515625 6.30859375 -7.28515625 6.30859375 -5.0625 4.4375 C-3.96615234 3.50744141 -3.96615234 3.50744141 -2.84765625 2.55859375 C-2.23792969 2.04425781 -1.62820312 1.52992188 -1 1 C-0.67 0.67 -0.34 0.34 0 0 Z " fill="#828282" transform="translate(95,599)"/>
<path d="M0 0 C3 0 3 0 5.5 2.3125 C6.325 3.199375 7.15 4.08625 8 5 C8.598125 5.598125 9.19625 6.19625 9.8125 6.8125 C10.204375 7.204375 10.59625 7.59625 11 8 C6.80639551 7.32902328 3.59665648 5.1441606 0 3 C0 2.01 0 1.02 0 0 Z " fill="#767676" transform="translate(243,590)"/>
<path d="M0 0 C0.598125 0.309375 1.19625 0.61875 1.8125 0.9375 C4.08956772 2.10209704 4.08956772 2.10209704 7 3 C7.33 5.31 7.66 7.62 8 10 C4.74475735 6.97727468 2.38179263 3.74281699 0 0 Z " fill="#757575" transform="translate(330,553)"/>
<path d="M0 0 C2.31 0 4.62 0 7 0 C7 1.32 7 2.64 7 4 C8.32 4.33 9.64 4.66 11 5 C10.67 5.66 10.34 6.32 10 7 C8.33073546 6.02526874 6.66464358 5.04510211 5 4.0625 C4.071875 3.51722656 3.14375 2.97195313 2.1875 2.41015625 C1.465625 1.94480469 0.74375 1.47945313 0 1 C0 0.67 0 0.34 0 0 Z " fill="#898989" transform="translate(278,510)"/>
<path d="M0 0 C1.258125 -0.020625 2.51625 -0.04125 3.8125 -0.0625 C4.52019531 -0.07410156 5.22789062 -0.08570313 5.95703125 -0.09765625 C8 0 8 0 11 1 C11.33 1.99 11.66 2.98 12 4 C7.80530429 3.40075776 3.99000166 2.42500059 0 1 C0 0.67 0 0.34 0 0 Z " fill="#7E7E7F" transform="translate(231,490)"/>
<path d="M0 0 C5 7.5 5 7.5 5 12 C3.68 11.67 2.36 11.34 1 11 C0.67 7.37 0.34 3.74 0 0 Z " fill="#88898A" transform="translate(542,424)"/>
<path d="M0 0 C0 3.20395416 -0.74335022 5.09399739 -2 8 C-3.65 8 -5.3 8 -7 8 C-6.02133662 6.85373678 -5.04205413 5.70800212 -4.0625 4.5625 C-3.51722656 3.92441406 -2.97195312 3.28632813 -2.41015625 2.62890625 C-1.63204305 1.73008851 -0.84063472 0.84063472 0 0 Z " fill="#919192" transform="translate(237,318)"/>
<path d="M0 0 C3.3 0 6.6 0 10 0 C4 4 4 4 1 4 C0.67 2.68 0.34 1.36 0 0 Z " fill="#8D8D8E" transform="translate(943,799)"/>
<path d="M0 0 C1.32 0 2.64 0 4 0 C4 0.99 4 1.98 4 3 C5.32 3.33 6.64 3.66 8 4 C7.67 5.32 7.34 6.64 7 8 C5.83035398 6.8572081 4.66435444 5.71068285 3.5 4.5625 C2.8503125 3.92441406 2.200625 3.28632812 1.53125 2.62890625 C0 1 0 1 0 0 Z " fill="#9A9A9A" transform="translate(448,767)"/>
<path d="M0 0 C1 3 1 3 0.22265625 4.82421875 C-0.8515625 6.54947917 -1.92578125 8.27473958 -3 10 C-3.33 10 -3.66 10 -4 10 C-4 7.69 -4 5.38 -4 3 C-2.68 2.67 -1.36 2.34 0 2 C0 1.34 0 0.68 0 0 Z " fill="#999A9B" transform="translate(1010,744)"/>
<path d="M0 0 C0.33 0.66 0.66 1.32 1 2 C3.02463255 2.65213292 3.02463255 2.65213292 5 3 C5 5.31 5 7.62 5 10 C2.08772731 6.71195019 0.50298788 4.40114397 0 0 Z " fill="#9A9B9B" transform="translate(69,744)"/>
<path d="M0 0 C0.33 0 0.66 0 1 0 C1 1.65 1 3.3 1 5 C0.01 5.495 0.01 5.495 -1 6 C-1.46651207 8.12576782 -1.46651207 8.12576782 -1.625 10.5625 C-1.69976562 11.38878906 -1.77453125 12.21507812 -1.8515625 13.06640625 C-1.90054687 13.70449219 -1.94953125 14.34257813 -2 15 C-2.33 15 -2.66 15 -3 15 C-3.56229448 4.27475338 -3.56229448 4.27475338 0 0 Z " fill="#E4E4E5" transform="translate(293,704)"/>
<path d="M0 0 C0.66 0.33 1.32 0.66 2 1 C1.34 2.32 0.68 3.64 0 5 C-1.32 5 -2.64 5 -4 5 C-4 5.66 -4 6.32 -4 7 C-5.32 7.33 -6.64 7.66 -8 8 C-5.33333333 5.33333333 -2.66666667 2.66666667 0 0 Z " fill="#8A8B8C" transform="translate(252,305)"/>
<path d="M0 0 C0.66 0.33 1.32 0.66 2 1 C0.71034824 2.37562854 -0.62689293 3.70766393 -2 5 C-2.66 5 -3.32 5 -4 5 C-4.33 5.99 -4.66 6.98 -5 8 C-6.32 7.67 -7.64 7.34 -9 7 C-6.62997587 4.38049964 -4.04546021 2.76316117 -1 1 C-0.67 0.67 -0.34 0.34 0 0 Z " fill="#6B6B6C" transform="translate(263,297)"/>
<path d="M0 0 C2.97 0 5.94 0 9 0 C3 4 3 4 0 4 C0 2.68 0 1.36 0 0 Z " fill="#8D8E8F" transform="translate(953,795)"/>
<path d="M0 0 C0.33 0 0.66 0 1 0 C1.29341888 5.67276511 1.00559652 8.99067246 -2 14 C-3.25127906 10.45332822 -2.72285053 8.27746562 -1.5625 4.75 C-1.27503906 3.85796875 -0.98757812 2.9659375 -0.69140625 2.046875 C-0.46324219 1.37140625 -0.23507813 0.6959375 0 0 Z " fill="#5E5E5F" transform="translate(60,653)"/>
<path d="M0 0 C0.33 0.66 0.66 1.32 1 2 C1.99 2 2.98 2 4 2 C4.33 4.97 4.66 7.94 5 11 C0 3.5 0 3.5 0 0 Z " fill="#9B9B9B" transform="translate(687,520)"/>
<path d="M0 0 C0.33 0 0.66 0 1 0 C1 1.98 1 3.96 1 6 C1.99 6 2.98 6 4 6 C4 7.98 4 9.96 4 12 C1.11376003 8.74134196 -0.64299639 6.4030445 -1 2 C-0.67 1.34 -0.34 0.68 0 0 Z " fill="#9C9C9C" transform="translate(675,492)"/>
<path d="M0 0 C2.475 0.495 2.475 0.495 5 1 C5.33 3.31 5.66 5.62 6 8 C1.125 3.375 1.125 3.375 0 0 Z " fill="#989898" transform="translate(80,762)"/>
<path d="M0 0 C2.5 1 2.5 1 5 3 C5.46837899 5.79374292 5.23424505 8.14221036 5 11 C0 3.5 0 3.5 0 0 Z " fill="#8A8A8A" transform="translate(411,699)"/>
<path d="M0 0 C4.13333333 6.2 4.13333333 6.2 3.625 9.25 C3.41875 9.8275 3.2125 10.405 3 11 C1.5 10 1.5 10 0 8 C-0.27345479 5.28153765 -0.13491285 2.74322801 0 0 Z " fill="#757576" transform="translate(287,646)"/>
<path d="M0 0 C2.79872437 2.52788007 4.45773019 4.20411134 5 8 C3.68 8 2.36 8 1 8 C0.67 5.36 0.34 2.72 0 0 Z " fill="#959595" transform="translate(270,615)"/>
<path d="M0 0 C1.55693206 2.33539809 2.90200646 4.57968756 4.1875 7.0625 C4.55230469 7.75472656 4.91710937 8.44695313 5.29296875 9.16015625 C5.52628906 9.76730469 5.75960937 10.37445312 6 11 C5.67 11.66 5.34 12.32 5 13 C4.71125 12.360625 4.4225 11.72125 4.125 11.0625 C3.17176549 8.84793921 3.17176549 8.84793921 1 8 C0.40644386 5.35139573 0.25790731 2.70802678 0 0 Z " fill="#636463" transform="translate(982,575)"/>
<path d="M0 0 C0.99 0.495 0.99 0.495 2 1 C2 1.99 2 2.98 2 4 C2.99 4 3.98 4 5 4 C5 6.31 5 8.62 5 11 C0 4.63636364 0 4.63636364 0 0 Z " fill="#878787" transform="translate(715,576)"/>
<path d="M0 0 C8.57142857 -0.28571429 8.57142857 -0.28571429 12 2 C12 2.66 12 3.32 12 4 C6.06 2.515 6.06 2.515 0 1 C0 0.67 0 0.34 0 0 Z " fill="#595A5B" transform="translate(137,803)"/>
<path d="M0 0 C1.32 0 2.64 0 4 0 C2.9024777 2.99324263 2.32317108 3.84610901 -0.625 5.25 C-1.40875 5.4975 -2.1925 5.745 -3 6 C-3 5.01 -3 4.02 -3 3 C-2.01 2.67 -1.02 2.34 0 2 C0 1.34 0 0.68 0 0 Z " fill="#979798" transform="translate(974,783)"/>
<path d="M0 0 C1.32 0 2.64 0 4 0 C2.70700306 2.88437779 1.34058637 4.87219421 -1 7 C-1.04254356 5.00045254 -1.04080783 2.99958364 -1 1 C-0.67 0.67 -0.34 0.34 0 0 Z " fill="#979797" transform="translate(995,763)"/>
<path d="M0 0 C0.33 0 0.66 0 1 0 C1 2.64 1 5.28 1 8 C-0.32 8 -1.64 8 -3 8 C-2.37240135 5.07120629 -1.41377341 2.63904371 0 0 Z " fill="#C2C3C3" transform="translate(644,742)"/>
<path d="M0 0 C0.66 0.33 1.32 0.66 2 1 C0.515 6.445 0.515 6.445 -1 12 C-1.33 12 -1.66 12 -2 12 C-2.05395478 10.37536158 -2.09277195 8.75021459 -2.125 7.125 C-2.14820313 6.22007812 -2.17140625 5.31515625 -2.1953125 4.3828125 C-2 2 -2 2 0 0 Z " fill="#818182" transform="translate(1020,718)"/>
<path d="M0 0 C0.66 0 1.32 0 2 0 C2 0.66 2 1.32 2 2 C2.66 2 3.32 2 4 2 C4.33 4.64 4.66 7.28 5 10 C2.08772731 6.71195019 0.50298788 4.40114397 0 0 Z " fill="#919191" transform="translate(760,667)"/>
<path d="M0 0 C0.33 0 0.66 0 1 0 C1.63019694 9.17286652 1.63019694 9.17286652 -1 12.625 C-1.66 13.07875 -2.32 13.5325 -3 14 C-2.85691406 13.44828125 -2.71382812 12.8965625 -2.56640625 12.328125 C-1.9544691 9.81285231 -1.43873189 7.28957492 -0.9375 4.75 C-0.67259766 3.41195312 -0.67259766 3.41195312 -0.40234375 2.046875 C-0.26957031 1.37140625 -0.13679688 0.6959375 0 0 Z " fill="#ECECED" transform="translate(61,653)"/>
<path d="M0 0 C3.14737182 0.69941596 6.02588876 1.76078698 9 3 C9 3.33 9 3.66 9 4 C2.25 4.125 2.25 4.125 0 3 C0 2.01 0 1.02 0 0 Z " fill="#868788" transform="translate(221,578)"/>
<path d="M0 0 C3.37641082 3.37641082 4.27450305 5.64517436 6 10 C4.68 10 3.36 10 2 10 C1.34 6.7 0.68 3.4 0 0 Z " fill="#818282" transform="translate(927,466)"/>
<path d="M0 0 C1.48280196 0.78483659 2.9611498 1.57809334 4.4375 2.375 C5.67306641 3.03628906 5.67306641 3.03628906 6.93359375 3.7109375 C9 5 9 5 10 7 C8.51515588 6.60404157 7.0371169 6.18249294 5.5625 5.75 C4.73878906 5.51796875 3.91507812 5.2859375 3.06640625 5.046875 C1 4 1 4 0.21484375 1.890625 C0.14394531 1.26671875 0.07304687 0.6428125 0 0 Z " fill="#7F7F7F" transform="translate(445,294)"/>
<path d="M0 0 C2.97 0 5.94 0 9 0 C6.33440687 1.77706209 3.9719385 2.87548273 1 4 C0.67 2.68 0.34 1.36 0 0 Z " fill="#909091" transform="translate(214,799)"/>
<path d="M0 0 C2.64 0.33 5.28 0.66 8 1 C8 2.32 8 3.64 8 5 C5.04590299 3.62845496 2.55991624 2.01136276 0 0 Z " fill="#919293" transform="translate(110,790)"/>
<path d="M0 0 C2.31 0 4.62 0 7 0 C5.1875 2 5.1875 2 3 4 C2.01 4 1.02 4 0 4 C0 2.68 0 1.36 0 0 Z " fill="#8B8C8D" transform="translate(238,787)"/>
<path d="M0 0 C4 4.625 4 4.625 4 8 C2.68 7.67 1.36 7.34 0 7 C0 4.69 0 2.38 0 0 Z " fill="#8E8E8F" transform="translate(620,582)"/>
<path d="M0 0 C4 4.625 4 4.625 4 8 C2.68 7.67 1.36 7.34 0 7 C0 4.69 0 2.38 0 0 Z " fill="#9A9B9C" transform="translate(612,566)"/>
<path d="M0 0 C1.32 0 2.64 0 4 0 C4 2.64 4 5.28 4 8 C0 3.375 0 3.375 0 0 Z " fill="#8F8F90" transform="translate(708,563)"/>
<path d="M0 0 C2.64 0 5.28 0 8 0 C8.33 1.32 8.66 2.64 9 4 C5.85262818 3.30058404 2.97411124 2.23921302 0 1 C0 0.67 0 0.34 0 0 Z " fill="#919293" transform="translate(254,498)"/>
<path d="M0 0 C1.77706209 2.66559313 2.87548273 5.0280615 4 8 C3.01 8.495 3.01 8.495 2 9 C1.34 8.67 0.68 8.34 0 8 C0 5.36 0 2.72 0 0 Z " fill="#8C8D8E" transform="translate(933,477)"/>
<path d="M0 0 C0.33 0 0.66 0 1 0 C1 2.64 1 5.28 1 8 C0.01 8.495 0.01 8.495 -1 9 C-1.66 8.67 -2.32 8.34 -3 8 C-2.690625 7.236875 -2.38125 6.47375 -2.0625 5.6875 C-1.32106407 3.81210323 -0.63771783 1.91315348 0 0 Z " fill="#969798" transform="translate(203,362)"/>
<path d="M0 0 C2.15377564 2.62198774 3.40072174 4.64404172 4 8 C2.68 8 1.36 8 0 8 C0 5.36 0 2.72 0 0 Z " fill="#8B8B8B" transform="translate(860,330)"/>
<path d="M0 0 C0.99 0.495 0.99 0.495 2 1 C2 1.66 2 2.32 2 3 C2.639375 3.28875 3.27875 3.5775 3.9375 3.875 C6 5 6 5 7 7 C5.02 6.34 3.04 5.68 1 5 C0.67 3.35 0.34 1.7 0 0 Z " fill="#858586" transform="translate(473,314)"/>
<path d="M0 0 C2.64 0 5.28 0 8 0 C8 1.32 8 2.64 8 4 C5.0280615 2.87548273 2.66559313 1.77706209 0 0 Z " fill="#737475" transform="translate(118,795)"/>
<path d="M0 0 C0.33 0 0.66 0 1 0 C1 2.97 1 5.94 1 9 C0.34 9 -0.32 9 -1 9 C-1.33 6.69 -1.66 4.38 -2 2 C-1.34 2 -0.68 2 0 2 C0 1.34 0 0.68 0 0 Z " fill="#DADADB" transform="translate(1021,709)"/>
<path d="M0 0 C2.83374881 3.20336822 3.5205537 5.78087253 4 10 C3.67 9.01 3.34 8.02 3 7 C2.01 7 1.02 7 0 7 C0 4.69 0 2.38 0 0 Z " fill="#858685" transform="translate(649,640)"/>
<path d="M0 0 C0.33 0 0.66 0 1 0 C1 2.64 1 5.28 1 8 C-0.32 8 -1.64 8 -3 8 C-2.690625 7.236875 -2.38125 6.47375 -2.0625 5.6875 C-1.32106407 3.81210323 -0.63771783 1.91315348 0 0 Z " fill="#909191" transform="translate(69,631)"/>
<path d="M0 0 C2.46278801 2.46278801 2.99771255 4.70676982 4 8 C2.68 7.67 1.36 7.34 0 7 C0 4.69 0 2.38 0 0 Z " fill="#909191" transform="translate(640,622)"/>
<path d="M0 0 C2.475 0.99 2.475 0.99 5 2 C5 4.31 5 6.62 5 9 C4.34 8.01 3.68 7.02 3 6 C2.195625 4.9790625 2.195625 4.9790625 1.375 3.9375 C0 2 0 2 0 0 Z " fill="#868686" transform="translate(358,594)"/>
<path d="M0 0 C0.99 1.485 0.99 1.485 2 3 C2.556875 3.639375 3.11375 4.27875 3.6875 4.9375 C5 7 5 7 4.6875 9.25 C4.460625 9.8275 4.23375 10.405 4 11 C4 10.01 4 9.02 4 8 C3.01 8 2.02 8 1 8 C0.67 5.36 0.34 2.72 0 0 Z " fill="#6E6F70" transform="translate(937,485)"/>
<path d="M0 0 C1.77706209 2.66559313 2.87548273 5.0280615 4 8 C2.68 8 1.36 8 0 8 C0 5.36 0 2.72 0 0 Z " fill="#808081" transform="translate(864,338)"/>
<path d="M0 0 C2.97 0.33 5.94 0.66 9 1 C9 1.99 9 2.98 9 4 C5.85262818 3.30058404 2.97411124 2.23921302 0 1 C0 0.67 0 0.34 0 0 Z " fill="#848586" transform="translate(857,799)"/>
<path d="M0 0 C1.98 0.99 1.98 0.99 4 2 C4 3.98 4 5.96 4 8 C0 3.375 0 3.375 0 0 Z " fill="#808080" transform="translate(749,645)"/>
<path d="M0 0 C4 4.625 4 4.625 4 8 C3.01 8 2.02 8 1 8 C0.67 5.36 0.34 2.72 0 0 Z " fill="#8C8D8D" transform="translate(278,627)"/>
<path d="M0 0 C0.99 0 1.98 0 3 0 C3.33 2.97 3.66 5.94 4 9 C2.01388388 7.01388388 1.08545288 5.55856751 0 3 C0 2.01 0 1.02 0 0 Z " fill="#939393" transform="translate(737,620)"/>
<path d="M0 0 C4 4.75 4 4.75 4 7 C2.68 7 1.36 7 0 7 C0 4.69 0 2.38 0 0 Z " fill="#7C7D7E" transform="translate(608,558)"/>
<path d="M0 0 C1.98 0.99 1.98 0.99 4 2 C4 3.98 4 5.96 4 8 C0 3.375 0 3.375 0 0 Z " fill="#7C7C7D" transform="translate(696,539)"/>
<path d="M0 0 C2.15377564 2.62198774 3.40072174 4.64404172 4 8 C2.68 7.67 1.36 7.34 0 7 C0 4.69 0 2.38 0 0 Z " fill="#8B8B8C" transform="translate(523,387)"/>
<path d="M0 0 C1.10844919 3.32534757 0.84454356 5.62182575 0 9 C-0.99 9 -1.98 9 -3 9 C-2.30058404 5.85262818 -1.23921302 2.97411124 0 0 Z " fill="#737475" transform="translate(199,370)"/>
<path d="M0 0 C0.33 0 0.66 0 1 0 C1.390625 5.95703125 1.390625 5.95703125 1 8 C-0.32 8.99 -1.64 9.98 -3 11 C-2.01 7.37 -1.02 3.74 0 0 Z " fill="#4E4E4E" transform="translate(642,350)"/>
</svg>
