<?xml version="1.0" encoding="UTF-8"?>
<svg version="1.1" xmlns="http://www.w3.org/2000/svg" width="1080" height="1080">
<path d="M0 0 C0.79422363 0.06993164 1.58844727 0.13986328 2.40673828 0.21191406 C7.3956792 0.7499266 11.98009061 1.92979537 16.75927734 3.44506836 C19.97312154 4.45366487 23.2324117 5.24740623 26.5 6.0625 C38.45616897 9.18012347 49.17933377 14.59540418 60.125 20.1875 C62.12408425 21.18932941 64.12379227 22.18991911 66.125 23.1875 C66.125 23.8475 66.125 24.5075 66.125 25.1875 C66.82367187 25.42597656 67.52234375 25.66445312 68.2421875 25.91015625 C71.60804309 27.40153129 74.36660305 29.37603723 77.25 31.625 C77.81332031 32.06094482 78.37664063 32.49688965 78.95703125 32.94604492 C84.81963782 37.58096239 89.95888358 42.79784969 95.125 48.1875 C95.98867188 49.03441406 96.85234375 49.88132813 97.7421875 50.75390625 C99.80237097 52.85799527 101.53776071 54.92659279 103.25 57.3125 C104.66467157 59.27774644 106.00038355 61.06530917 107.73046875 62.76171875 C109.59030147 64.6632284 110.25238377 66.70389995 111.125 69.1875 C111.785 69.1875 112.445 69.1875 113.125 69.1875 C114.38671875 70.953125 114.38671875 70.953125 115.8125 73.4375 C116.34488281 74.35917969 116.87726562 75.28085937 117.42578125 76.23046875 C117.98652344 77.20628906 118.54726563 78.18210937 119.125 79.1875 C119.95064453 80.54294922 119.95064453 80.54294922 120.79296875 81.92578125 C130.27874901 97.61964654 137.59661153 114.72943116 143.125 132.1875 C143.61806641 133.69570313 143.61806641 133.69570313 144.12109375 135.234375 C146.33233954 142.15204664 148.13041298 149.1091239 149.73046875 156.18823242 C150.45542493 159.39151833 151.22619741 162.53529339 152.14453125 165.69140625 C153.21879334 169.52194237 153.98404953 173.33821988 154.6875 177.25 C154.81318359 177.93126953 154.93886719 178.61253906 155.06835938 179.31445312 C156.14013697 185.15592157 157.1345389 190.98574226 157.84375 196.8828125 C157.97136719 197.92824219 158.09898437 198.97367188 158.23046875 200.05078125 C158.49442097 202.23296046 158.7574353 204.41525331 159.01953125 206.59765625 C159.14714844 207.64050781 159.27476562 208.68335938 159.40625 209.7578125 C159.52033203 210.70414551 159.63441406 211.65047852 159.75195312 212.62548828 C160.07965006 214.87604564 160.57117229 216.98609047 161.125 219.1875 C161.56034191 222.42686704 161.82911104 225.6827214 162.125 228.9375 C162.24875 230.18273437 162.24875 230.18273437 162.375 231.453125 C164.11264974 250.35006589 164.29120616 269.36146811 164.25537109 288.32373047 C164.25000253 291.68591821 164.25536486 295.04797245 164.26171875 298.41015625 C164.26848057 318.20370559 163.52862169 337.94002825 162.1875 357.6875 C162.05891602 359.60187866 162.05891602 359.60187866 161.92773438 361.55493164 C161.395618 369.15943785 160.67853772 376.67299815 159.62109375 384.22265625 C158.98263138 389.32532792 158.59424004 394.43699206 158.1875 399.5625 C157.55812397 407.33009148 156.62100445 414.93652898 155.23291016 422.60302734 C154.11737099 428.86503362 153.42314362 435.13546091 152.859375 441.46972656 C152.4143634 446.23680839 151.63850263 450.83718922 150.65795898 455.52246094 C149.67737464 460.42583187 148.9541858 465.37201628 148.1875 470.3125 C146.88946289 478.55683847 145.49645568 486.76010876 143.90625 494.953125 C143.26620638 498.33002182 142.70426983 501.7163616 142.15625 505.109375 C141.90004883 506.69093384 141.90004883 506.69093384 141.63867188 508.30444336 C141.3067161 510.36954278 140.97955594 512.43542136 140.65820312 514.50219727 C139.73680514 520.22509188 138.49155538 525.71621155 136.90625 531.28955078 C135.74343366 535.60287264 134.85267453 539.96491826 133.9375 544.33642578 C133.05221862 548.53246797 132.12509621 552.71775449 131.1875 556.90234375 C131.01943848 557.65448151 130.85137695 558.40661926 130.67822266 559.18154907 C129.98821508 562.26934117 129.29738565 565.35694591 128.60449219 568.4440918 C128.08897038 570.74233849 127.57512083 573.04094831 127.0625 575.33984375 C126.89645264 576.08422699 126.73040527 576.82861023 126.55932617 577.59555054 C125.20986975 583.6955915 123.99602798 589.81665233 122.8359375 595.95532227 C122.13718424 599.13210606 121.19021877 602.11706664 120.125 605.1875 C119.78163662 606.76442812 119.46751184 608.34809946 119.1875 609.9375 C118.3532529 614.31893951 117.17304374 618.49626004 115.84375 622.75 C115.15875505 625.07302637 114.61877584 627.37987596 114.125 629.75 C113.32567174 633.5334871 112.21117787 637.11571061 110.90625 640.75390625 C110.06850221 643.36349062 109.41535465 645.99938146 108.76318359 648.66040039 C107.4931079 653.68968637 106.09891512 658.68616975 104.72094727 663.68676758 C104.18978908 665.61668285 103.66226916 667.54759823 103.13476562 669.47851562 C101.30586515 676.1224874 99.34361636 682.664647 97.125 689.1875 C96.135 692.4875 95.145 695.7875 94.125 699.1875 C31.095 699.1875 -31.935 699.1875 -96.875 699.1875 C-95.44799025 694.90647076 -94.04418658 691.25703183 -92.08203125 687.2578125 C-91.53756348 686.14051758 -90.9930957 685.02322266 -90.43212891 683.87207031 C-89.85640137 682.69741211 -89.28067383 681.52275391 -88.6875 680.3125 C-84.69795404 672.1190134 -80.77552256 663.91455129 -77.18554688 655.53686523 C-75.43078936 651.44297263 -73.58992747 647.40233453 -71.6875 643.375 C-60.68060038 619.96255133 -50.69327957 596.11624087 -40.875 572.1875 C-40.47538055 571.21550659 -40.47538055 571.21550659 -40.06768799 570.22387695 C-20.98547854 523.79518765 -3.72636212 476.44801868 10.125 428.1875 C10.49756249 426.90415616 10.87061865 425.62095554 11.24414062 424.33789062 C22.36498018 386.09452274 31.85661363 347.40116004 36.68310547 307.80981445 C36.99255115 305.27321468 37.32010481 302.74335159 37.66455078 300.21166992 C39.22283863 288.24824949 39.49739137 276.35917791 39.49560547 264.3034668 C39.49997148 261.02144133 39.53642087 257.74077326 39.57421875 254.45898438 C39.7213001 226.58543724 35.82233036 195.10866639 15.6875 174.0625 C0.39406944 159.85688667 -15.96590938 158.37926381 -36.04443359 159.01269531 C-48.61990593 159.7893072 -58.77209032 166.3235109 -67.2890625 175.3203125 C-75.19295143 184.62587631 -79.71539674 195.50854764 -82.875 207.1875 C-83.19339844 208.26257813 -83.51179688 209.33765625 -83.83984375 210.4453125 C-95.72933834 251.99124454 -93.53103248 298.01759767 -92.50177002 340.80010986 C-92.30714406 348.97606378 -92.13118269 357.15243419 -91.95758057 365.32885742 C-91.89962817 368.03672908 -91.84073755 370.74456746 -91.78070068 373.45239258 C-90.98164462 409.66408344 -90.25934853 445.8136971 -92.1875 482 C-92.25239624 483.22228302 -92.31729248 484.44456604 -92.38415527 485.70388794 C-93.02382727 497.3392361 -93.78217115 508.94349228 -95.24958801 520.50752258 C-95.78152538 524.76653427 -95.89719175 528.89942066 -95.875 533.1875 C-96.03991468 534.73813236 -96.24281258 536.28554847 -96.49609375 537.82421875 C-96.62693359 538.64986328 -96.75777344 539.47550781 -96.89257812 540.32617188 C-97.03115234 541.16728516 -97.16972656 542.00839844 -97.3125 542.875 C-98.1913343 548.23630974 -98.92742192 553.52979662 -99.29296875 558.953125 C-99.82729347 565.86058701 -101.24451518 572.49734981 -102.75 579.25 C-103.00652344 580.43916016 -103.26304687 581.62832031 -103.52734375 582.85351562 C-106.36513485 595.83747943 -109.56120471 607.9718013 -115.69140625 619.79296875 C-116.91133843 622.17651699 -116.91133843 622.17651699 -117.86328125 624.69921875 C-121.3602961 633.29998501 -127.34934854 640.8121102 -132.875 648.1875 C-133.40738281 648.95320312 -133.93976563 649.71890625 -134.48828125 650.5078125 C-134.94589844 651.06210937 -135.40351562 651.61640625 -135.875 652.1875 C-136.535 652.1875 -137.195 652.1875 -137.875 652.1875 C-138.205 653.1775 -138.535 654.1675 -138.875 655.1875 C-139.535 655.1875 -140.195 655.1875 -140.875 655.1875 C-141.205 656.1775 -141.535 657.1675 -141.875 658.1875 C-142.535 658.1875 -143.195 658.1875 -143.875 658.1875 C-143.875 658.8475 -143.875 659.5075 -143.875 660.1875 C-152.63272813 667.69026863 -161.98034879 672.59178727 -172.875 676.1875 C-174.298125 676.66123047 -174.298125 676.66123047 -175.75 677.14453125 C-193.99473589 682.40544231 -213.94018343 681.73591221 -232.64746094 680.12548828 C-234.87084986 679.93785024 -237.09522261 679.77154217 -239.3203125 679.60546875 C-258.70739217 678.03037453 -272.97325529 671.27529507 -286.125 656.75 C-306.73145066 631.28135311 -308.85681501 591.83502848 -315.12220764 560.83622742 C-316.74292195 552.82278721 -318.39411026 544.81616035 -320.0625 536.8125 C-322.39782146 525.5858472 -324.65160037 514.34380021 -326.89096069 503.09771729 C-328.67929242 494.11903691 -330.49071522 485.14665227 -332.375 476.1875 C-334.43518226 466.38683287 -336.41473982 456.57103551 -338.375 446.75 C-338.52581024 445.99450867 -338.67662048 445.23901733 -338.83200073 444.46063232 C-340.08318515 438.19052369 -341.33169046 431.91988321 -342.57861328 425.64892578 C-346.70471207 404.89956017 -350.87973909 384.15944747 -355.4375 363.5 C-357.40784624 354.55634141 -359.16070656 345.58222168 -360.85961914 336.58349609 C-362.57605743 327.57004207 -364.4547765 318.59666027 -366.375 309.625 C-370.02284717 292.56221491 -373.46679456 275.46585865 -376.78515625 258.3359375 C-377.48131786 254.74470368 -378.17797904 251.15356713 -378.875 247.5625 C-379.04740204 246.67386261 -379.21980408 245.78522522 -379.39743042 244.86965942 C-382.04006637 231.26626883 -384.81570103 217.7043065 -387.875 204.1875 C-391.835 203.8575 -395.795 203.5275 -399.875 203.1875 C-399.8604606 204.06937611 -399.84592119 204.95125221 -399.8309412 205.85985184 C-399.36093431 234.3856451 -398.89664755 262.91152986 -398.4375 291.4375 C-398.41995619 292.52728684 -398.40241239 293.61707369 -398.38433695 294.73988438 C-397.53083891 347.78592809 -396.67945118 400.82990746 -396.24415016 453.88132095 C-396.20558994 458.54849503 -396.16580036 463.21565748 -396.125 467.8828125 C-396.1129056 469.26953533 -396.1129056 469.26953533 -396.10056686 470.68427277 C-395.94339388 488.25458527 -395.68410311 505.82310094 -395.40971065 523.39188623 C-395.37492443 525.62203256 -395.34034704 527.85218204 -395.30583382 530.08233261 C-394.99843267 549.94399811 -394.99843267 549.94399811 -394.67208862 569.80535889 C-393.94304691 612.93622882 -393.75621571 656.05086395 -393.875 699.1875 C-415.24067134 699.21082696 -436.60634058 699.22847817 -457.97202206 699.23931217 C-467.89175275 699.24447556 -477.81147555 699.25151907 -487.73120117 699.26293945 C-496.37396979 699.27288498 -505.01673268 699.27935311 -513.65950686 699.28158849 C-518.23872463 699.28289583 -522.81792605 699.28598308 -527.3971386 699.29323006 C-531.70211706 699.29998821 -536.00707233 699.30211738 -540.31205559 699.30060768 C-541.89678066 699.3008841 -543.48150646 699.30289044 -545.06622696 699.30670547 C-547.22040411 699.31163953 -549.3744923 699.31049937 -551.52867126 699.30775452 C-553.34137717 699.30913721 -553.34137717 699.30913721 -555.19070339 699.31054783 C-557.875 699.1875 -557.875 699.1875 -558.875 698.1875 C-558.9726494 696.67253223 -559.00022978 695.15300218 -559.00034916 693.63489062 C-559.00285268 692.64266449 -559.0053562 691.65043836 -559.00793558 690.62814477 C-559.00559442 689.52274078 -559.00325325 688.41733679 -559.00084114 687.27843571 C-559.00229458 686.11121484 -559.00374802 684.94399397 -559.00524551 683.74140278 C-559.00828715 680.47247064 -559.00679343 677.20357517 -559.00346755 673.9346444 C-559.0009467 670.38931025 -559.00418444 666.84398083 -559.00671089 663.29864734 C-559.01033556 657.07536259 -559.01020508 650.8520865 -559.00766373 644.62880135 C-559.00389494 635.37479521 -559.00580783 626.12079644 -559.00887203 616.86679036 C-559.01414942 600.34278686 -559.01367675 583.81878723 -559.01079312 567.29478337 C-559.00828183 552.83409952 -559.00761887 538.3734171 -559.00881577 523.91273308 C-559.00889215 522.95512644 -559.00896854 521.99751981 -559.00904724 521.01089479 C-559.00935855 517.12406799 -559.00967695 513.23724119 -559.010007 509.3504144 C-559.01306906 472.85574624 -559.01028774 436.36108054 -559.0049101 399.86641275 C-559.00016454 367.41443987 -559.00058846 334.9624709 -559.00537109 302.51049805 C-559.0107212 266.08592431 -559.01285155 229.66135275 -559.00975883 193.23677868 C-559.00943809 189.35654668 -559.00912525 185.47631468 -559.00881577 181.59608269 C-559.00873669 180.64060705 -559.00865761 179.68513142 -559.00857614 178.70070197 C-559.00743675 164.24672657 -559.0087725 149.79275273 -559.01129532 135.33877754 C-559.0141485 118.90973796 -559.01345278 102.48070285 -559.00801457 86.05166382 C-559.00506863 76.84722081 -559.00490047 67.64278748 -559.00866075 58.43834471 C-559.01089256 52.30040353 -559.00952684 46.16247015 -559.00515598 40.02453013 C-559.00276291 36.52047066 -559.00199323 33.01643051 -559.00556196 29.51237161 C-559.00856588 25.74903051 -559.00552148 21.98574361 -559.00084114 18.22240543 C-559.00318231 17.11934261 -559.00552347 16.01627978 -559.00793558 14.87979081 C-559.00543207 13.88506117 -559.00292855 12.89033152 -559.00034916 11.86545855 C-559.0002814 11.00373336 -559.00021365 10.14200817 -559.00014383 9.25417009 C-558.875 7.1875 -558.875 7.1875 -557.875 5.1875 C-528.48101087 5.16470544 -499.08702237 5.14699965 -469.69302622 5.13643467 C-466.22568934 5.13518391 -462.75835248 5.13388959 -459.29101562 5.13256836 C-458.60070823 5.13230605 -457.91040084 5.13204374 -457.19917504 5.13177348 C-446.01019942 5.12741781 -434.82122892 5.11953083 -423.63225634 5.1103472 C-412.15810069 5.10100779 -400.6839492 5.09551867 -389.20978963 5.09341151 C-382.76209407 5.09210448 -376.31441014 5.08901915 -369.86671829 5.08176994 C-363.80445744 5.07500896 -357.74221307 5.0728832 -351.67994881 5.07439232 C-349.44900867 5.07411603 -347.21806801 5.07211137 -344.98713112 5.06829453 C-341.95312094 5.06335609 -338.91917384 5.0645023 -335.88516235 5.06724548 C-334.99217898 5.06433264 -334.09919561 5.0614198 -333.17915213 5.05841869 C-327.10324242 5.07337879 -327.10324242 5.07337879 -324.875 6.1875 C-324.05859375 8.875 -324.05859375 8.875 -323.3125 12.1875 C-322.71926216 15.99755673 -322.71926216 15.99755673 -320.875 19.1875 C-320.38993944 21.8627054 -319.95171728 24.53221082 -319.5390625 27.21875 C-318.22797139 35.39940699 -316.5943083 43.45756272 -314.74404907 51.53125 C-313.86152573 55.38297456 -312.99575728 59.23847336 -312.12890625 63.09375 C-311.94649887 63.90352295 -311.76409149 64.7132959 -311.57615662 65.54760742 C-310.18592589 71.74199948 -308.84624404 77.94630854 -307.52734375 84.15625 C-307.33166809 85.07668091 -307.13599243 85.99711182 -306.93438721 86.94543457 C-306.16731011 90.55781315 -305.40114469 94.17036288 -304.64202881 97.78442383 C-302.49519867 108.00367936 -300.20723144 118.1633304 -297.59822083 128.27575684 C-296.21820953 133.65395902 -295.04786191 139.04762909 -294 144.5 C-293.82460693 145.40049072 -293.64921387 146.30098145 -293.46850586 147.22875977 C-293.32292236 147.97955811 -293.17733887 148.73035645 -293.02734375 149.50390625 C-291.66822692 156.34376931 -290.11206005 163.13876847 -288.5625 169.9375 C-286.0786689 180.84434182 -283.63390929 191.75834867 -281.25 202.6875 C-281.10267426 203.36268677 -280.95534851 204.03787354 -280.80355835 204.73352051 C-279.82546509 209.2177661 -278.84983128 213.70254405 -277.875 218.1875 C-277.65102539 219.21746094 -277.42705078 220.24742187 -277.19628906 221.30859375 C-276.38814625 225.02529422 -275.58029555 228.74205778 -274.77319336 232.45898438 C-273.12717889 240.03681284 -271.47070944 247.61233175 -269.8125 255.1875 C-268.49960766 261.18741421 -267.18715633 267.18742478 -265.875 273.1875 C-265.64840698 274.22360413 -265.42181396 275.25970825 -265.18835449 276.32720947 C-263.62095346 283.49486602 -262.05456118 290.66274226 -260.48904419 297.83081055 C-259.96153128 300.24558048 -259.43376707 302.66029554 -258.9057312 305.07495117 C-258.15130858 308.52507769 -257.39779622 311.97540182 -256.64453125 315.42578125 C-256.40373337 316.5266507 -256.16293549 317.62752014 -255.9148407 318.76174927 C-254.82549951 323.75697491 -253.75082487 328.75387314 -252.72802734 333.76318359 C-252.5523674 334.61945847 -252.37670746 335.47573334 -252.19572449 336.35795593 C-251.88041758 337.90431541 -251.56959588 339.45160154 -251.2648468 341.00007629 C-250.51721963 344.66696371 -249.58642834 348.14629672 -248.35180664 351.68139648 C-246.87027774 355.98015011 -246.07040355 360.18937473 -245.421875 364.6796875 C-244.02243788 373.65164994 -242.1465496 382.4631709 -240.125 391.3125 C-239.59694373 393.6485514 -239.07057251 395.98497836 -238.54434204 398.32144165 C-238.18697537 399.90781145 -237.82904583 401.49405455 -237.47055054 403.08016968 C-236.24248107 408.52169981 -235.04507991 413.96927592 -233.8671875 419.421875 C-233.70822998 420.15634857 -233.54927246 420.89082214 -233.38549805 421.64755249 C-232.77502042 424.46982843 -232.16482853 427.29214758 -231.56066895 430.11578369 C-231.15012709 432.03354362 -230.73530803 433.9503864 -230.3203125 435.8671875 C-229.97250732 437.48729736 -229.97250732 437.48729736 -229.61767578 439.14013672 C-228.86541542 442.22682765 -227.90464884 445.18349486 -226.875 448.1875 C-226.48757575 449.82582348 -226.1313205 451.47195588 -225.8125 453.125 C-225.64621094 453.98609375 -225.47992188 454.8471875 -225.30859375 455.734375 C-224.94823362 457.77316925 -224.65318607 459.82337773 -224.375 461.875 C-223.95180905 465.18444441 -223.95180905 465.18444441 -222.96484375 468.2890625 C-222.13148571 471.13517933 -221.48198134 473.97675786 -220.91015625 476.88671875 C-220.74966797 477.70333984 -220.58917969 478.51996094 -220.42382812 479.36132812 C-220.09756283 481.04768731 -219.7773207 482.73522217 -219.46289062 484.42382812 C-218.39196568 490.40523479 -218.39196568 490.40523479 -214.875 495.1875 C-212.94399083 495.85099794 -212.94399083 495.85099794 -210.875 495.75 C-209.8540625 495.78287109 -209.8540625 495.78287109 -208.8125 495.81640625 C-206.65020333 495.31757221 -206.65020333 495.31757221 -205.2265625 493.02734375 C-203.82028384 490.0725328 -202.97555792 487.37676559 -202.25 484.1875 C-202.01023437 483.176875 -201.77046875 482.16625 -201.5234375 481.125 C-194.93474619 441.11656122 -201.33457282 397.2298801 -205.12426758 357.18771362 C-207.74840947 329.40401943 -209.66995339 301.63032569 -210.77282715 273.74346924 C-210.8736781 271.22056885 -210.97991925 268.69793941 -211.08691406 266.17529297 C-212.52518142 231.51185706 -212.00897702 196.55744263 -206.875 162.1875 C-206.73336426 161.22086426 -206.59172852 160.25422852 -206.44580078 159.25830078 C-201.80285934 128.34811052 -193.26208885 96.56211787 -175.875 70.1875 C-174.85792969 68.63289063 -174.85792969 68.63289063 -173.8203125 67.046875 C-169.05373612 59.89282004 -163.83826581 53.39044691 -157.875 47.1875 C-157.43317383 46.7145752 -156.99134766 46.24165039 -156.53613281 45.75439453 C-149.0933499 37.79626235 -141.14626859 30.95969477 -131.875 25.1875 C-131.215 25.1875 -130.555 25.1875 -129.875 25.1875 C-129.875 24.5275 -129.875 23.8675 -129.875 23.1875 C-124.22300253 20.48873818 -118.55589005 17.82487131 -112.875 15.1875 C-111.3590625 14.47787109 -111.3590625 14.47787109 -109.8125 13.75390625 C-100.94068215 9.82090561 -91.60944163 7.33934316 -82.25732422 4.82910156 C-80.31427939 4.30580562 -78.37692287 3.76142573 -76.44140625 3.2109375 C-52.46973006 -3.09237178 -24.55219811 -2.21435249 0 0 Z " fill="#FCFCFC" transform="translate(713.875,190.8125)"/>
<path d="M0 0 C3.51273421 2.51820329 6.31529117 4.97311852 8.71484375 8.60546875 C8.71484375 9.26546875 8.71484375 9.92546875 8.71484375 10.60546875 C9.37484375 10.60546875 10.03484375 10.60546875 10.71484375 10.60546875 C15.67289138 19.52995449 17.16031047 29.61617772 14.4453125 39.546875 C10.637492 50.2780055 4.62225076 56.008538 -5.0859375 61.65234375 C-12.29180912 65.03958274 -22.42626041 64.82536175 -30.0390625 62.9140625 C-32.28598309 61.98012507 -34.23769366 60.91699599 -36.28515625 59.60546875 C-36.96835937 59.20457031 -37.6515625 58.80367187 -38.35546875 58.390625 C-45.38877996 53.77752164 -49.47565358 46.85386633 -52.72265625 39.23046875 C-54.49525403 27.80706081 -53.29354699 18.65586863 -47.12109375 8.734375 C-36.26814183 -5.47782394 -15.32755372 -9.35373791 0 0 Z M-38.28515625 7.60546875 C-38.61515625 8.59546875 -38.94515625 9.58546875 -39.28515625 10.60546875 C-39.94515625 10.60546875 -40.60515625 10.60546875 -41.28515625 10.60546875 C-46.57236461 19.19718233 -48.88073123 26.50016055 -47.28515625 36.60546875 C-44.98932647 43.36691254 -41.28970141 49.60243865 -35.28515625 53.60546875 C-34.29515625 53.60546875 -33.30515625 53.60546875 -32.28515625 53.60546875 C-32.28515625 54.26546875 -32.28515625 54.92546875 -32.28515625 55.60546875 C-24.10014652 58.74808637 -16.91272954 59.68975515 -8.54296875 56.58984375 C-3.63438318 54.28848909 0.17507989 51.78882604 3.71484375 47.60546875 C4.25109375 47.02796875 4.78734375 46.45046875 5.33984375 45.85546875 C9.99769604 38.23352864 11.13250359 29.63275208 9.09375 20.96484375 C6.34940008 13.01232755 1.0926472 7.1399846 -6.28515625 3.10546875 C-16.95099541 -0.99109923 -29.42484628 0.27833113 -38.28515625 7.60546875 Z " fill="#DADADA" transform="translate(908.28515625,826.39453125)"/>
<path d="M0 0 C1.22074219 -0.01417969 2.44148437 -0.02835938 3.69921875 -0.04296875 C7.30779328 0.18719979 10.0007281 0.75785428 13.3125 2.1875 C16.49902542 5.97688158 18.21086122 9.20719992 18.3125 14.1875 C17.77625 15.3425 17.24 16.4975 16.6875 17.6875 C16.23375 18.8425 15.78 19.9975 15.3125 21.1875 C15.745625 22.05375 16.17875 22.92 16.625 23.8125 C19.25147304 29.06544608 18.54373259 34.41524944 18.3125 40.1875 C16.515625 41.2421875 16.515625 41.2421875 14.3125 42.1875 C11.0625 41.3125 11.0625 41.3125 8.3125 40.1875 C8.32410156 39.59582031 8.33570313 39.00414062 8.34765625 38.39453125 C8.39572386 34.18518215 8.37256883 30.2952667 7.3125 26.1875 C5.3325 26.1875 3.3525 26.1875 1.3125 26.1875 C1.32410156 27.17492187 1.33570313 28.16234375 1.34765625 29.1796875 C1.35667969 30.46101562 1.36570312 31.74234375 1.375 33.0625 C1.38660156 34.33867188 1.39820313 35.61484375 1.41015625 36.9296875 C1.3125 40.1875 1.3125 40.1875 0.3125 42.1875 C-3.6475 41.6925 -3.6475 41.6925 -7.6875 41.1875 C-7.71214705 35.50919922 -7.73033462 29.83092931 -7.74243164 24.15258789 C-7.74747256 22.21931415 -7.75430519 20.28604424 -7.76293945 18.3527832 C-7.77501565 15.58023128 -7.78073057 12.80772959 -7.78515625 10.03515625 C-7.79031754 9.16536636 -7.79547882 8.29557648 -7.80079651 7.39942932 C-7.80099185 5.32844186 -7.74958168 3.25755676 -7.6875 1.1875 C-5.78481293 -0.71518707 -2.53060855 0.01322157 0 0 Z M1.3125 9.1875 C0.51296862 12.47446233 0.21591064 13.89773192 1.3125 17.1875 C3.72895782 17.35437448 3.72895782 17.35437448 6.3125 17.1875 C8.59978734 15.34866119 8.59978734 15.34866119 8.4375 12.5625 C8.39625 11.77875 8.355 10.995 8.3125 10.1875 C6.0025 9.8575 3.6925 9.5275 1.3125 9.1875 Z " fill="#E3E3E3" transform="translate(884.6875,834.8125)"/>
</svg>
